Preview_RobotoExtremo-wght_800.00_wdth_125.00_opsz_36.00_GRAD_0.00_XTRA_468.00_XOPQ_96.00_YOPQ_79.00.ufo
<glyph name="exclam" format="2">
  <advance width="705"/>
  <unicode hex="0021"/>
  <outline>
    <contour>
      <point x="93.00923076923077" y="207.87076923076927" type="qcurve" smooth="yes"/>
      <point x="93.00923076923077" y="301.24923076923085"/>
      <point x="226.0621538461539" y="435.88"/>
      <point x="350.01513846153847" y="435.88" type="qcurve" smooth="yes"/>
      <point x="477.4450461538462" y="435.88"/>
      <point x="612.3133538461539" y="301.24923076923085"/>
      <point x="612.3133538461539" y="207.87076923076927" type="qcurve" smooth="yes"/>
      <point x="612.3133538461539" y="114.32307692307691"/>
      <point x="479.26043076923077" y="-20.307692307692307"/>
      <point x="352.79667692307686" y="-20.307692307692307" type="qcurve" smooth="yes"/>
      <point x="226.8929230769231" y="-20.307692307692307"/>
      <point x="93.00923076923077" y="114.49230769230769"/>
    </contour>
    <contour>
      <point x="146.99396923076924" y="513.3415384615386" type="line"/>
      <point x="134.37735384615382" y="1456.0" type="line"/>
      <point x="570.979076923077" y="1456.0" type="line"/>
      <point x="558.464" y="513.3415384615386" type="line"/>
    </contour>
  </outline>
</glyph>
<glyph name="quotedbl" format="2">
  <advance width="1090"/>
  <unicode hex="0022"/>
  <outline>
    <contour>
      <point x="89.33673846153846" y="823.3938461538462" type="line"/>
      <point x="73.03076923076922" y="1247.3753846153845" type="line"/>
      <point x="73.03076923076922" y="1456.0" type="line"/>
      <point x="496.7054769230769" y="1456.0" type="line"/>
      <point x="496.7054769230769" y="1247.3753846153845" type="line"/>
      <point x="480.8395076923077" y="823.3938461538462" type="line"/>
    </contour>
    <contour>
      <point x="609.5499076923077" y="823.3938461538462" type="line"/>
      <point x="593.2439384615385" y="1247.3753846153845" type="line"/>
      <point x="593.2439384615385" y="1456.0" type="line"/>
      <point x="1017.1894153846156" y="1456.0" type="line"/>
      <point x="1017.1894153846156" y="1247.3753846153845" type="line"/>
      <point x="1001.1880615384615" y="823.3938461538462" type="line"/>
    </contour>
  </outline>
</glyph>
<glyph name="numbersign" format="2">
  <advance width="1674"/>
  <unicode hex="0023"/>
  <outline>
    <contour>
      <point x="106.85846153846154" y="-20.0" type="line"/>
      <point x="586.566153846154" y="1459.3846153846152" type="line"/>
      <point x="969.2498461538463" y="1459.3846153846152" type="line"/>
      <point x="489.40676923076916" y="-20.0" type="line"/>
    </contour>
    <contour>
      <point x="720.9538461538463" y="-20.0" type="line"/>
      <point x="1200.7784615384612" y="1459.3846153846152" type="line"/>
      <point x="1584.9544615384614" y="1459.3846153846152" type="line"/>
      <point x="1105.1975384615384" y="-20.0" type="line"/>
    </contour>
    <contour>
      <point x="-6.507692307692321" y="331.0923076923077" type="line"/>
      <point x="-6.507692307692321" y="613.64" type="line"/>
      <point x="1604.920615384615" y="613.64" type="line"/>
      <point x="1604.920615384615" y="331.0923076923077" type="line"/>
    </contour>
    <contour>
      <point x="86.36615384615382" y="825.676923076923" type="line"/>
      <point x="86.36615384615382" y="1108.2246153846152" type="line"/>
      <point x="1696.6590769230768" y="1108.2246153846152" type="line"/>
      <point x="1696.6590769230768" y="825.676923076923" type="line"/>
    </contour>
  </outline>
</glyph>
<glyph name="dollar" format="2">
  <advance width="1282"/>
  <unicode hex="0024"/>
  <outline>
    <contour>
      <point x="-34.778461538461535" y="393.7015384615385" type="qcurve" smooth="yes"/>
      <point x="-34.778461538461535" y="464.64307692307693" type="line"/>
      <point x="408.4307692307693" y="464.64307692307693" type="line"/>
      <point x="408.4307692307693" y="436.8153846153846" type="line" smooth="yes"/>
      <point x="407.73538461538465" y="368.5054740608229"/>
      <point x="530.803076923077" y="295.48"/>
      <point x="638.6061538461539" y="295.48" type="qcurve" smooth="yes"/>
      <point x="740.156923076923" y="295.48"/>
      <point x="851.8399999999999" y="356.6789674754775"/>
      <point x="851.8399999999999" y="401.6984615384615" type="qcurve" smooth="yes"/>
      <point x="851.8399999999999" y="450.2979487179487"/>
      <point x="746.2567021242627" y="511.00212599137365"/>
      <point x="514.3815384615384" y="566.5384615384614" type="qcurve" smooth="yes"/>
      <point x="235.1577947323866" y="638.742801198046"/>
      <point x="-16.15692307692307" y="839.4959104186952"/>
      <point x="-16.15692307692307" y="1025.7353846153849" type="qcurve" smooth="yes"/>
      <point x="-16.15692307692307" y="1227.3938461538462"/>
      <point x="328.9476923076923" y="1468.8492307692304"/>
      <point x="622.4399999999999" y="1468.8492307692304" type="qcurve" smooth="yes"/>
      <point x="912.4707692307692" y="1468.8492307692304"/>
      <point x="1270.8553846153845" y="1250.7876923076924"/>
      <point x="1270.8553846153845" y="1074.4215384615381" type="qcurve" smooth="yes"/>
      <point x="1270.8553846153845" y="1015.3015384615385" type="line"/>
      <point x="833.9046153846153" y="1015.3015384615385" type="line"/>
      <point x="833.9046153846153" y="1034.784615384615" type="line" smooth="yes"/>
      <point x="833.9046153846153" y="1084.48234865726"/>
      <point x="728.7384615384615" y="1148.5630769230768"/>
      <point x="632.1753846153846" y="1148.5630769230768" type="qcurve" smooth="yes"/>
      <point x="533.6615384615385" y="1148.5630769230768"/>
      <point x="438.1353846153846" y="1097.5073022751897"/>
      <point x="438.1353846153846" y="1058.003076923077" type="qcurve" smooth="yes"/>
      <point x="438.1353846153846" y="1020.1338461538463"/>
      <point x="540.0492307692308" y="970.8084615384614"/>
      <point x="796.116153846154" y="913.7615384615384" type="qcurve" smooth="yes"/>
      <point x="1047.9861538461535" y="857.8376923076922"/>
      <point x="1306.433846153846" y="647.3215384615385"/>
      <point x="1306.433846153846" y="450.5230769230769" type="qcurve" smooth="yes"/>
      <point x="1306.433846153846" y="239.1969230769231"/>
      <point x="943.7015384615383" y="-14.90461538461539"/>
      <point x="645.5599999999998" y="-14.90461538461539" type="qcurve" smooth="yes"/>
      <point x="348.6769230769231" y="-14.90461538461539"/>
      <point x="-34.778461538461535" y="202.6523076923077"/>
    </contour>
    <contour>
      <point x="447.5938461538461" y="-154.0184615384615" type="line"/>
      <point x="447.5938461538461" y="335.67692307692295" type="line"/>
      <point x="826.6492307692307" y="335.67692307692295" type="line"/>
      <point x="826.6492307692307" y="94.28923076923077" type="line"/>
      <point x="837.6584615384614" y="84.28923076923077" type="line"/>
      <point x="837.6584615384614" y="-154.0184615384615" type="line"/>
    </contour>
    <contour>
      <point x="456.4553846153845" y="1130.6307692307694" type="line"/>
      <point x="456.482846153846" y="1362.9138461538462" type="line"/>
      <point x="445.2430769230769" y="1373.0153846153848" type="line"/>
      <point x="445.2430769230769" y="1602.6769230769232" type="line"/>
      <point x="835.3220769230769" y="1602.6769230769232" type="line"/>
      <point x="835.3076923076925" y="1130.6307692307694" type="line"/>
    </contour>
  </outline>
</glyph>
<glyph name="ampersand" format="2">
  <advance width="1704"/>
  <unicode hex="0026"/>
  <outline>
    <contour>
      <point x="36.39999999999999" y="378.3076923076923" type="qcurve" smooth="yes"/>
      <point x="36.39999999999999" y="536.8861538461538"/>
      <point x="244.71876923076914" y="737.1107692307694"/>
      <point x="474.71815384615394" y="845.6984615384617" type="qcurve" smooth="yes"/>
      <point x="677.5476923076924" y="939.7076923076922" type="line" smooth="yes"/>
      <point x="791.2492307692307" y="993.9630769230771"/>
      <point x="884.5943384615387" y="1100.538461538462"/>
      <point x="884.5943384615387" y="1154.836923076923" type="qcurve" smooth="yes"/>
      <point x="884.5943384615387" y="1203.443076923077"/>
      <point x="819.4712615384615" y="1253.0769230769229"/>
      <point x="762.335876923077" y="1253.0769230769229" type="qcurve" smooth="yes"/>
      <point x="702.0835692307694" y="1253.0769230769229"/>
      <point x="628.1574153846152" y="1201.3784615384616"/>
      <point x="628.1574153846152" y="1153.5723076923075" type="qcurve" smooth="yes"/>
      <point x="628.1574153846152" y="1085.1692307692308"/>
      <point x="761.1860923076923" y="952.6276923076925"/>
      <point x="878.3206153846154" y="832.8584615384615" type="qcurve" smooth="yes"/>
      <point x="1703.386584615385" y="0.0" type="line"/>
      <point x="1179.3974153846154" y="0.0" type="line"/>
      <point x="460.4067692307692" y="711.083076923077" type="line" smooth="yes"/>
      <point x="322.64873846153847" y="847.4707692307693"/>
      <point x="190.77932307692313" y="1034.3723076923077"/>
      <point x="190.77932307692313" y="1138.273846153846" type="qcurve" smooth="yes"/>
      <point x="190.77932307692313" y="1302.2461538461534"/>
      <point x="486.6994461538463" y="1486.0"/>
      <point x="769.9851076923076" y="1486.0" type="qcurve" smooth="yes"/>
      <point x="1044.3015384615385" y="1486.0"/>
      <point x="1318.3108923076927" y="1315.332307692308"/>
      <point x="1318.3108923076927" y="1146.4523076923078" type="qcurve" smooth="yes"/>
      <point x="1318.3108923076927" y="1007.8553846153845"/>
      <point x="1121.7533538461537" y="820.2307692307693"/>
      <point x="963.5446153846154" y="742.6246153846154" type="qcurve" smooth="yes"/>
      <point x="790.0658461538462" y="662.2676923076924" type="line" smooth="yes"/>
      <point x="575.3016030015997" y="556.8921145534952"/>
      <point x="477.6466461538462" y="473.7169230769231"/>
      <point x="477.6466461538462" y="419.8892307692307" type="qcurve" smooth="yes"/>
      <point x="477.6466461538462" y="349.3907692307693"/>
      <point x="600.128123076923" y="282.46153846153857"/>
      <point x="702.9684923076921" y="282.46153846153857" type="qcurve" smooth="yes"/>
      <point x="868.234830769231" y="282.46153846153857"/>
      <point x="1210.7235692307693" y="500.82153846153835"/>
      <point x="1237.8435692307692" y="735.1938461538462" type="qcurve"/>
      <point x="1665.4216615384616" y="735.1938461538462" type="line"/>
      <point x="1665.4216615384616" y="441.19384615384615"/>
      <point x="1073.5041230769232" y="-20.0"/>
      <point x="697.4054153846154" y="-20.0" type="qcurve" smooth="yes"/>
      <point x="360.26941538461546" y="-20.0"/>
      <point x="36.39999999999999" y="203.53846153846155"/>
    </contour>
  </outline>
</glyph>
<glyph name="quotesingle" format="2">
  <advance width="575"/>
  <unicode hex="0027"/>
  <outline>
    <contour>
      <point x="91.56123076923076" y="823.3938461538462" type="line"/>
      <point x="73.03076923076922" y="1247.3753846153845" type="line"/>
      <point x="73.03076923076922" y="1456.0" type="line"/>
      <point x="502.2560000000001" y="1456.0" type="line"/>
      <point x="502.2560000000001" y="1247.3753846153845" type="line"/>
      <point x="483.8947692307692" y="823.3938461538462" type="line"/>
    </contour>
  </outline>
</glyph>
<glyph name="parenleft" format="2">
  <advance width="797"/>
  <unicode hex="0028"/>
  <outline>
    <contour>
      <point x="815.9206153846156" y="-436.0" type="line"/>
      <point x="494.50092307692313" y="-380.13230769230756"/>
      <point x="67.67692307692307" y="80.83692307692309"/>
      <point x="67.67692307692307" y="514.3046153846153" type="qcurve" smooth="yes"/>
      <point x="67.67692307692307" y="525.0" type="line" smooth="yes"/>
      <point x="67.67692307692307" y="947.1692307692308"/>
      <point x="494.5009230769231" y="1420.132307692308"/>
      <point x="815.9206153846155" y="1476.0" type="qcurve"/>
      <point x="815.9206153846155" y="1198.876923076923" type="line"/>
      <point x="680.2382431745408" y="1157.6913721295214"/>
      <point x="560.3298461538462" y="887.2553846153846"/>
      <point x="560.3298461538462" y="532.0" type="qcurve" smooth="yes"/>
      <point x="560.3298461538462" y="508.0" type="line" smooth="yes"/>
      <point x="560.3298461538462" y="143.43999999999997"/>
      <point x="680.2382431745408" y="-117.69137212952154"/>
      <point x="815.9206153846156" y="-158.87692307692305" type="qcurve"/>
    </contour>
  </outline>
</glyph>
<glyph name="parenright" format="2">
  <advance width="797"/>
  <unicode hex="0029"/>
  <outline>
    <contour>
      <point x="-18.05230769230769" y="-436.0" type="qcurve"/>
      <point x="-18.05230769230769" y="-158.87692307692305" type="line"/>
      <point x="117.48984615384614" y="-117.71384615384613"/>
      <point x="238.23384615384612" y="143.43999999999997"/>
      <point x="238.23384615384612" y="508.0" type="qcurve" smooth="yes"/>
      <point x="238.23384615384612" y="532.0" type="line" smooth="yes"/>
      <point x="238.23384615384612" y="887.2553846153846"/>
      <point x="117.48984615384613" y="1157.7138461538461"/>
      <point x="-18.05230769230769" y="1198.876923076923" type="qcurve"/>
      <point x="-18.05230769230769" y="1476.0" type="line"/>
      <point x="303.92738461538465" y="1420.1323076923077"/>
      <point x="730.0559999999999" y="947.8646153846154"/>
      <point x="730.0559999999999" y="525.6953846153847" type="qcurve" smooth="yes"/>
      <point x="730.0559999999999" y="515.0" type="line" smooth="yes"/>
      <point x="730.0559999999999" y="81.53230769230768"/>
      <point x="303.9273846153846" y="-380.13230769230756"/>
    </contour>
  </outline>
</glyph>
<glyph name="asterisk" format="2">
  <advance width="1114"/>
  <unicode hex="002A"/>
  <outline>
    <contour>
      <point x="9.323076923076922" y="949.793846153846" type="line"/>
      <point x="122.8011076923077" y="1293.4369230769232" type="line"/>
      <point x="405.78535384615395" y="1166.2953846153846" type="line"/>
      <point x="373.3719384615385" y="1476.0" type="line"/>
      <point x="739.6919384615385" y="1476.0" type="line"/>
      <point x="708.6692923076922" y="1166.2953846153846" type="line"/>
      <point x="991.6196923076924" y="1294.132307692308" type="line"/>
      <point x="1104.4361846153843" y="950.4892307692309" type="line"/>
      <point x="800.7364923076921" y="886.1784615384615" type="line"/>
      <point x="1009.6059076923076" y="654.4892307692307" type="line"/>
      <point x="713.4509538461537" y="443.5476923076924" type="line"/>
      <point x="557.5750153846153" y="713.2215384615384" type="line"/>
      <point x="401.6990769230769" y="443.5476923076924" type="line"/>
      <point x="106.20566153846153" y="654.4892307692307" type="line"/>
      <point x="313.0227692307692" y="886.1784615384615" type="line"/>
    </contour>
  </outline>
</glyph>
<glyph name="plus" format="2">
  <advance width="1243"/>
  <unicode hex="002B"/>
  <outline>
    <contour>
      <point x="43.054769230769246" y="480.34153846153845" type="line"/>
      <point x="43.054769230769246" y="879.1415384615385" type="line"/>
      <point x="1199.6406153846153" y="879.1415384615385" type="line"/>
      <point x="1199.6406153846153" y="480.34153846153845" type="line"/>
    </contour>
    <contour>
      <point x="410.60984615384615" y="129.35999999999999" type="line"/>
      <point x="410.60984615384615" y="1228.7938461538456" type="line"/>
      <point x="832.7809230769228" y="1228.7938461538456" type="line"/>
      <point x="832.7809230769228" y="129.35999999999999" type="line"/>
    </contour>
  </outline>
</glyph>
<glyph name="comma" format="2">
  <advance width="667"/>
  <unicode hex="002C"/>
  <outline>
    <contour>
      <point x="44.00307692307692" y="-167.2553846153846" type="line"/>
      <point x="92.65969230769225" y="-107.57538461538462"/>
      <point x="133.45538461538465" y="23.209230769230775"/>
      <point x="133.45538461538465" y="95.90461538461537" type="qcurve" smooth="yes"/>
      <point x="133.45538461538465" y="422.6953846153846" type="line"/>
      <point x="556.1046153846154" y="422.6953846153846" type="line"/>
      <point x="556.129723076923" y="98.68615384615386" type="line" smooth="yes"/>
      <point x="556.129723076923" y="7.409230769230778"/>
      <point x="477.2290461538462" y="-171.1876923076923"/>
      <point x="414.1472000000001" y="-222.59076923076924" type="qcurve"/>
    </contour>
  </outline>
</glyph>
<glyph name="hyphen" format="2">
  <advance width="899"/>
  <unicode hex="002D"/>
  <outline>
    <contour>
      <point x="54.81230769230769" y="438.8676923076923" type="line"/>
      <point x="54.81230769230769" y="814.8553846153848" type="line"/>
      <point x="844.7255384615386" y="814.8553846153848" type="line"/>
      <point x="844.7255384615386" y="438.8676923076923" type="line"/>
    </contour>
  </outline>
</glyph>
<glyph name="period" format="2">
  <advance width="677"/>
  <unicode hex="002E"/>
  <outline>
    <contour>
      <point x="78.34153846153848" y="218.96000000000006" type="qcurve" smooth="yes"/>
      <point x="78.34153846153848" y="319.2676923076923"/>
      <point x="213.2523076923077" y="455.8492307692307"/>
      <point x="339.1169230769231" y="455.8492307692307" type="qcurve" smooth="yes"/>
      <point x="464.2553846153846" y="455.8492307692307"/>
      <point x="599.1661538461537" y="319.2676923076923"/>
      <point x="599.1661538461537" y="219.65538461538466" type="qcurve" smooth="yes"/>
      <point x="599.1661538461537" y="117.93587541293061"/>
      <point x="464.2553846153846" y="-18.627692307692307"/>
      <point x="338.2861538461539" y="-18.627692307692307" type="qcurve" smooth="yes"/>
      <point x="213.2523076923077" y="-18.627692307692307"/>
      <point x="78.34153846153848" y="120.05587541293062"/>
    </contour>
  </outline>
</glyph>
<glyph name="slash" format="2">
  <advance width="965"/>
  <unicode hex="002F"/>
  <outline>
    <contour>
      <point x="-99.49230769230769" y="-125.0" type="line"/>
      <point x="602.1046153846155" y="1456.0" type="line"/>
      <point x="1017.4307692307693" y="1456.0" type="line"/>
      <point x="313.49538461538464" y="-125.0" type="line"/>
    </contour>
  </outline>
</glyph>
<glyph name="zero" format="2">
  <advance width="1415"/>
  <unicode hex="0030"/>
  <outline>
    <contour>
      <point x="37.737692307692306" y="623.8976923076923" type="qcurve" smooth="yes"/>
      <point x="37.737692307692306" y="836.8746153846154" type="line" smooth="yes"/>
      <point x="37.737692307692306" y="1140.3884615384616"/>
      <point x="391.2607692307693" y="1479.3307692307692"/>
      <point x="706.5900000000001" y="1479.3307692307692" type="qcurve" smooth="yes"/>
      <point x="1021.9938461538461" y="1479.3307692307692"/>
      <point x="1377.1738461538464" y="1147.4038461538455"/>
      <point x="1377.1738461538464" y="837.01" type="qcurve" smooth="yes"/>
      <point x="1377.1738461538464" y="623.5592307692307" type="line" smooth="yes"/>
      <point x="1377.1738461538464" y="303.60384615384623"/>
      <point x="1006.759230769231" y="-23.263076923076916"/>
      <point x="706.5900000000001" y="-23.330769230769228" type="qcurve" smooth="yes"/>
      <point x="392.7515384615386" y="-23.398461538461543"/>
      <point x="37.737692307692306" y="307.9384615384616"/>
    </contour>
    <contour>
      <point x="526.5361538461539" y="542.0961538461538" type="line" smooth="yes"/>
      <point x="526.5361538461539" y="424.6307692307693"/>
      <point x="603.9246153846153" y="297.9630769230769"/>
      <point x="706.59" y="297.9630769230769" type="qcurve" smooth="yes"/>
      <point x="809.0861538461539" y="297.9630769230769"/>
      <point x="888.3415384615386" y="424.6307692307693"/>
      <point x="888.3415384615386" y="541.7576923076922" type="qcurve" smooth="yes"/>
      <point x="888.3415384615386" y="910.3230769230769" type="line" smooth="yes"/>
      <point x="888.3415384615386" y="1026.619230769231"/>
      <point x="803.9092307692308" y="1151.2869230769231"/>
      <point x="706.59" y="1151.2869230769231" type="qcurve" smooth="yes"/>
      <point x="609.1015384615384" y="1151.2869230769231"/>
      <point x="526.5361538461539" y="1026.7546153846154"/>
      <point x="526.5361538461539" y="910.4584615384615" type="qcurve" smooth="yes"/>
    </contour>
  </outline>
</glyph>
<glyph name="one" format="2">
  <advance width="1415"/>
  <unicode hex="0031"/>
  <outline>
    <contour>
      <point x="623.8846153846155" y="0.0" type="line"/>
      <point x="623.8846153846155" y="1037.5769230769226" type="line"/>
      <point x="136.86923076923082" y="894.2753846153848" type="line"/>
      <point x="136.86923076923082" y="1285.6830769230767" type="line"/>
      <point x="729.9076923076922" y="1458.4192307692308" type="line"/>
      <point x="1114.9576923076922" y="1458.4192307692308" type="line"/>
      <point x="1114.9576923076922" y="0.0" type="line"/>
    </contour>
  </outline>
</glyph>
<glyph name="two" format="2">
  <advance width="1415"/>
  <unicode hex="0032"/>
  <outline>
    <contour>
      <point x="41.673076923076906" y="0.0" type="line"/>
      <point x="41.673076923076906" y="284.97692307692313" type="line"/>
      <point x="704.2607692307694" y="815.2207692307692" type="line" smooth="yes"/>
      <point x="757.9469230769229" y="854.4546153846155"/>
      <point x="843.2215384615386" y="961.573076923077"/>
      <point x="843.1876923076924" y="1025.9" type="qcurve" smooth="yes"/>
      <point x="843.1538461538463" y="1094.8638461538462"/>
      <point x="764.763076923077" y="1152.2269230769232"/>
      <point x="689.8123076923075" y="1152.2269230769232" type="qcurve" smooth="yes"/>
      <point x="605.4823076923077" y="1152.2269230769232"/>
      <point x="528.0138461538461" y="1070.0623076923075"/>
      <point x="528.2846153846153" y="959.8307692307691" type="qcurve" smooth="yes"/>
      <point x="528.2846153846153" y="907.7807692307692" type="line"/>
      <point x="40.03307692307692" y="907.7807692307692" type="line"/>
      <point x="40.03307692307692" y="1011.1923076923076" type="line" smooth="yes"/>
      <point x="40.03307692307692" y="1200.7638461538465"/>
      <point x="387.38000000000005" y="1479.3307692307692"/>
      <point x="696.61" y="1479.3307692307692" type="qcurve" smooth="yes"/>
      <point x="1014.3899999999999" y="1479.3307692307692"/>
      <point x="1327.4876923076922" y="1239.187692307692"/>
      <point x="1328.8569230769228" y="1044.11" type="qcurve" smooth="yes"/>
      <point x="1329.4269230769228" y="894.9423076923076"/>
      <point x="1189.3176923076926" y="677.0046153846156"/>
      <point x="1067.2576923076924" y="585.2061538461538" type="qcurve" smooth="yes"/>
      <point x="761.613076923077" y="356.8907692307693" type="line"/>
      <point x="1365.03" y="356.8907692307693" type="line"/>
      <point x="1365.03" y="0.0" type="line"/>
    </contour>
  </outline>
</glyph>
<glyph name="three" format="2">
  <advance width="1415"/>
  <unicode hex="0033"/>
  <outline>
    <contour>
      <point x="41.80769230769231" y="432.83538461538456" type="qcurve" smooth="yes"/>
      <point x="41.80769230769231" y="525.3553846153847" type="line"/>
      <point x="514.2476923076923" y="525.3553846153847" type="line"/>
      <point x="514.2476923076923" y="448.3230769230769" type="line" smooth="yes"/>
      <point x="515.0469230769231" y="369.36999999999995"/>
      <point x="620.0438461538464" y="295.8615384615385"/>
      <point x="710.22" y="295.8615384615385" type="qcurve" smooth="yes"/>
      <point x="797.4776923076923" y="295.8615384615385"/>
      <point x="902.256923076923" y="365.24769230769226"/>
      <point x="902.256923076923" y="459.05076923076916" type="qcurve" smooth="yes"/>
      <point x="902.256923076923" y="548.8815384615384"/>
      <point x="790.686153846154" y="619.4423076923076"/>
      <point x="682.816153846154" y="619.4423076923076" type="qcurve" smooth="yes"/>
      <point x="511.6469230769231" y="619.4423076923076" type="line"/>
      <point x="511.6469230769231" y="878.2961538461539" type="line"/>
      <point x="676.5284615384616" y="878.2961538461539" type="line" smooth="yes"/>
      <point x="765.8638461538461" y="878.2961538461539"/>
      <point x="872.8884615384618" y="949.537692307692"/>
      <point x="872.8884615384618" y="1025.1384615384618" type="qcurve" smooth="yes"/>
      <point x="872.8884615384618" y="1098.5776923076924"/>
      <point x="781.1869230769231" y="1158.2692307692307"/>
      <point x="702.5307692307692" y="1158.2692307692307" type="qcurve" smooth="yes"/>
      <point x="622.4892307692309" y="1158.2692307692307"/>
      <point x="532.5246153846153" y="1082.2876923076924"/>
      <point x="532.5246153846153" y="1013.2461538461541" type="qcurve" smooth="yes"/>
      <point x="532.5246153846153" y="960.4492307692309" type="line"/>
      <point x="71.65000000000002" y="960.4492307692309" type="line"/>
      <point x="71.65000000000002" y="1026.9384615384615" type="line" smooth="yes"/>
      <point x="69.7523076923077" y="1238.0846153846157"/>
      <point x="426.19615384615383" y="1479.3307692307692"/>
      <point x="716.9307692307693" y="1479.3307692307692" type="qcurve" smooth="yes"/>
      <point x="1017.6776923076924" y="1479.3307692307692"/>
      <point x="1349.2076923076925" y="1258.3884615384616"/>
      <point x="1349.2076923076925" y="1080.715384615385" type="qcurve" smooth="yes"/>
      <point x="1349.2076923076925" y="977.873076923077"/>
      <point x="1230.2253846153844" y="816.0630769230769"/>
      <point x="1112.75" y="767.1376923076922" type="qcurve"/>
      <point x="1112.75" y="763.1376923076922" type="line"/>
      <point x="1223.2523076923076" y="736.7523076923077"/>
      <point x="1390.5576923076928" y="568.7361538461538"/>
      <point x="1390.5576923076928" y="427.90384615384613" type="qcurve" smooth="yes"/>
      <point x="1390.5576923076928" y="232.5484615384616"/>
      <point x="1016.3069230769229" y="-23.330769230769228"/>
      <point x="713.563076923077" y="-23.330769230769228" type="qcurve" smooth="yes"/>
      <point x="405.3246153846154" y="-23.330769230769228"/>
      <point x="41.80769230769231" y="219.11153846153843"/>
    </contour>
  </outline>
</glyph>
<glyph name="four" format="2">
  <advance width="1415"/>
  <unicode hex="0034"/>
  <outline>
    <contour>
      <point x="766.9215384615385" y="0.0" type="line"/>
      <point x="766.9215384615385" y="358.2269230769231" type="line"/>
      <point x="784.8261538461539" y="382.2115384615384" type="line"/>
      <point x="784.8261538461539" y="906.3723076923079" type="line"/>
      <point x="775.0623076923076" y="906.3723076923079" type="line"/>
      <point x="482.7715384615385" y="603.6038461538461" type="line"/>
      <point x="949.5038461538461" y="603.6038461538461" type="line"/>
      <point x="995.3615384615389" y="619.6500000000001" type="line"/>
      <point x="1399.9615384615383" y="619.6500000000001" type="line"/>
      <point x="1399.9615384615383" y="254.92461538461544" type="line"/>
      <point x="30.584615384615383" y="254.92461538461544" type="line"/>
      <point x="30.584615384615383" y="587.1384615384615" type="line"/>
      <point x="821.8038461538463" y="1456.0" type="line"/>
      <point x="1211.2153846153847" y="1456.0" type="line"/>
      <point x="1211.2153846153847" y="0.0" type="line"/>
    </contour>
  </outline>
</glyph>
<glyph name="five" format="2">
  <advance width="1415"/>
  <unicode hex="0035"/>
  <outline>
    <contour>
      <point x="39.57615384615386" y="434.19230769230774" type="qcurve" smooth="yes"/>
      <point x="39.57615384615386" y="510.81230769230774" type="line"/>
      <point x="516.9376923076924" y="508.91461538461544" type="line"/>
      <point x="516.9376923076924" y="446.8846153846154" type="line" smooth="yes"/>
      <point x="516.9376923076924" y="369.0034210526316"/>
      <point x="613.1715384615384" y="296.20000000000005"/>
      <point x="703.2407692307693" y="296.20000000000005" type="qcurve" smooth="yes"/>
      <point x="789.1153846153845" y="296.20000000000005"/>
      <point x="883.019230769231" y="380.14307692307693"/>
      <point x="883.019230769231" y="495.33461538461535" type="qcurve" smooth="yes"/>
      <point x="883.019230769231" y="608.3353846153846"/>
      <point x="789.083846153846" y="686.2184615384615"/>
      <point x="704.7346153846155" y="686.2184615384615" type="qcurve" smooth="yes"/>
      <point x="640.0484615384617" y="686.2184615384615"/>
      <point x="559.0484615384617" y="640.4300000000001"/>
      <point x="530.14" y="597.2099999999999" type="qcurve"/>
      <point x="74.22461538461539" y="674.3115384615384" type="line"/>
      <point x="155.0623076923077" y="1456.0" type="line"/>
      <point x="1283.9146153846154" y="1456.0" type="line"/>
      <point x="1283.9146153846154" y="1088.4830769230769" type="line"/>
      <point x="507.8261538461538" y="1096.4715384615383" type="line"/>
      <point x="492.22923076923075" y="904.6346153846154" type="line"/>
      <point x="560.4245457686463" y="937.6565171605323"/>
      <point x="737.0492307692307" y="982.7115384615386"/>
      <point x="838.9838461538463" y="982.7115384615386" type="qcurve" smooth="yes"/>
      <point x="1068.322307692308" y="982.7115384615386"/>
      <point x="1368.6838461538462" y="743.9569230769229"/>
      <point x="1368.6499999999999" y="511.8561538461539" type="qcurve" smooth="yes"/>
      <point x="1368.616153846154" y="267.5876923076923"/>
      <point x="1030.313846153846" y="-23.26307692307692"/>
      <point x="709.7692307692307" y="-23.26307692307692" type="qcurve" smooth="yes"/>
      <point x="404.5253846153846" y="-23.26307692307692"/>
      <point x="53.67000000000001" y="220.75923076923075"/>
    </contour>
  </outline>
</glyph>
<glyph name="six" format="2">
  <advance width="1415"/>
  <unicode hex="0036"/>
  <outline>
    <contour>
      <point x="37.89615384615384" y="592.9715384615386" type="qcurve" smooth="yes"/>
      <point x="37.89615384615384" y="676.3984615384617" type="line" smooth="yes"/>
      <point x="37.89615384615384" y="1043.1292307692306"/>
      <point x="573.8246153846153" y="1474.673076923077"/>
      <point x="1089.1915384615386" y="1476.673076923077" type="qcurve" smooth="yes"/>
      <point x="1194.2769230769234" y="1477.173076923077" type="line"/>
      <point x="1194.2769230769234" y="1102.9676923076922" type="line"/>
      <point x="1108.179230769231" y="1102.9676923076922" type="line" smooth="yes"/>
      <point x="818.2146153846153" y="1102.9676923076922"/>
      <point x="520.1038461538462" y="900.7738461538462"/>
      <point x="520.1038461538462" y="580.9307692307692" type="qcurve" smooth="yes"/>
      <point x="520.1038461538462" y="547.9692307692306" type="line" smooth="yes"/>
      <point x="520.1038461538462" y="387.1653846153846"/>
      <point x="627.9399999999999" y="294.9384615384615"/>
      <point x="716.026923076923" y="294.9384615384615" type="qcurve" smooth="yes"/>
      <point x="805.5507692307691" y="294.9384615384615"/>
      <point x="901.0192307692308" y="374.11999999999995"/>
      <point x="901.0192307692308" y="513.7284615384615" type="qcurve" smooth="yes"/>
      <point x="901.0192307692308" y="608.3361538461537"/>
      <point x="812.2723076923077" y="699.2538461538462"/>
      <point x="721.7053846153846" y="699.2538461538462" type="qcurve" smooth="yes"/>
      <point x="633.5100000000001" y="699.2538461538462"/>
      <point x="518.2115384615386" y="620.2607692307693"/>
      <point x="518.2115384615386" y="532.7246153846153" type="qcurve"/>
      <point x="453.81538461538463" y="533.0238461538461" type="line"/>
      <point x="453.81538461538463" y="743.1169230769231"/>
      <point x="724.6784615384615" y="953.2069230769231"/>
      <point x="911.1200000000002" y="953.2069230769231" type="qcurve" smooth="yes"/>
      <point x="1126.9269230769232" y="953.2069230769231"/>
      <point x="1386.0538461538458" y="729.3830769230769"/>
      <point x="1385.918461538461" y="504.226923076923" type="qcurve" smooth="yes"/>
      <point x="1385.7830769230766" y="256.92846153846165"/>
      <point x="1002.4615384615386" y="-23.161538461538456"/>
      <point x="714.1115384615385" y="-23.161538461538456" type="qcurve" smooth="yes"/>
      <point x="415.06384615384616" y="-23.161538461538456"/>
      <point x="37.89615384615384" y="276.17230769230775"/>
    </contour>
  </outline>
</glyph>
<glyph name="seven" format="2">
  <advance width="1415"/>
  <unicode hex="0037"/>
  <outline>
    <contour>
      <point x="277.3500000000001" y="0.0" type="line"/>
      <point x="837.563076923077" y="1083.9330769230764" type="line"/>
      <point x="55.99615384615385" y="1083.9330769230764" type="line"/>
      <point x="55.99092307692306" y="1456.0" type="line"/>
      <point x="1338.4515384615383" y="1456.0" type="line"/>
      <point x="1338.4515384615383" y="1113.898461538462" type="line"/>
      <point x="790.0846153846154" y="0.0" type="line"/>
    </contour>
  </outline>
</glyph>
<glyph name="eight" format="2">
  <advance width="1415"/>
  <unicode hex="0038"/>
  <outline>
    <contour>
      <point x="38.60692307692307" y="411.8730769230769" type="qcurve" smooth="yes"/>
      <point x="38.60692307692307" y="548.4153846153846"/>
      <point x="210.7607692307692" y="725.0200000000001"/>
      <point x="314.4946153846155" y="753.7676923076924" type="qcurve"/>
      <point x="314.4946153846155" y="757.7676923076924" type="line"/>
      <point x="208.22384615384615" y="803.0946153846155"/>
      <point x="84.00692307692307" y="966.9730769230769"/>
      <point x="84.00692307692307" y="1082.2761538461539" type="qcurve" smooth="yes"/>
      <point x="84.00692307692307" y="1260.4723076923074"/>
      <point x="418.06615384615384" y="1479.1615384615384"/>
      <point x="707.9723076923075" y="1479.1615384615384" type="qcurve" smooth="yes"/>
      <point x="996.59" y="1479.1615384615384"/>
      <point x="1332.0115384615383" y="1258.8107692307697"/>
      <point x="1332.0115384615383" y="1082.4115384615382" type="qcurve" smooth="yes"/>
      <point x="1332.0115384615383" y="966.9730769230769"/>
      <point x="1207.6484615384616" y="795.97"/>
      <point x="1104.166153846154" y="757.8015384615386" type="qcurve"/>
      <point x="1104.166153846154" y="754.3015384615386" type="line"/>
      <point x="1207.5615384615385" y="724.4184615384615"/>
      <point x="1378.1769230769232" y="548.9153846153847"/>
      <point x="1378.1769230769232" y="411.8730769230769" type="qcurve" smooth="yes"/>
      <point x="1378.1769230769232" y="212.50000000000003"/>
      <point x="1008.653846153846" y="-23.161538461538456"/>
      <point x="707.9723076923075" y="-23.161538461538456" type="qcurve" smooth="yes"/>
      <point x="405.8015384615385" y="-23.161538461538456"/>
      <point x="38.60692307692307" y="212.50000000000003"/>
    </contour>
    <contour>
      <point x="526.7646153846155" y="458.21538461538466" type="qcurve" smooth="yes"/>
      <point x="526.7646153846155" y="360.59230769230766"/>
      <point x="625.6369230769232" y="287.20000000000005"/>
      <point x="707.0376923076923" y="287.20000000000005" type="qcurve" smooth="yes"/>
      <point x="789.2692307692306" y="287.20000000000005"/>
      <point x="888.7538461538463" y="359.9646153846154"/>
      <point x="888.7538461538463" y="457.58000000000004" type="qcurve" smooth="yes"/>
      <point x="888.7538461538463" y="554.399230769231"/>
      <point x="793.0676923076923" y="627.0384615384615"/>
      <point x="707.4723076923077" y="627.0384615384615" type="qcurve" smooth="yes"/>
      <point x="623.2076923076922" y="627.0384615384615"/>
      <point x="526.7646153846155" y="555.5007692307694"/>
    </contour>
    <contour>
      <point x="545.9876923076922" y="1011.5153846153846" type="qcurve" smooth="yes"/>
      <point x="545.9876923076922" y="929.2003296703296"/>
      <point x="631.9261538461537" y="859.3538461538463"/>
      <point x="707.1730769230769" y="859.3538461538463" type="qcurve" smooth="yes"/>
      <point x="783.2507692307692" y="859.3538461538463"/>
      <point x="868.9607692307693" y="929.1884615384616"/>
      <point x="868.9607692307693" y="1011.5153846153846" type="qcurve" smooth="yes"/>
      <point x="868.9607692307693" y="1091.938461538461"/>
      <point x="778.9861538461536" y="1162.8884615384613"/>
      <point x="707.0376923076923" y="1162.8884615384613" type="qcurve" smooth="yes"/>
      <point x="636.42" y="1162.8884615384613"/>
      <point x="545.9876923076922" y="1091.953516851042"/>
    </contour>
  </outline>
</glyph>
<glyph name="nine" format="2">
  <advance width="1415"/>
  <unicode hex="0039"/>
  <outline>
    <contour>
      <point x="27.15076923076922" y="951.8392307692309" type="qcurve" smooth="yes"/>
      <point x="27.286153846153834" y="1198.8761538461538"/>
      <point x="411.26153846153846" y="1477.854615384615"/>
      <point x="699.5461538461537" y="1477.854615384615" type="qcurve" smooth="yes"/>
      <point x="997.8284615384613" y="1477.854615384615"/>
      <point x="1376.873076923077" y="1177.8669230769233"/>
      <point x="1376.873076923077" y="861.0676923076923" type="qcurve" smooth="yes"/>
      <point x="1376.873076923077" y="777.640769230769" type="line" smooth="yes"/>
      <point x="1376.873076923077" y="410.9099999999999"/>
      <point x="840.4869230769233" y="-20.486923076923073"/>
      <point x="325.12" y="-22.859230769230763" type="qcurve" smooth="yes"/>
      <point x="219.20384615384617" y="-23.359230769230763" type="line"/>
      <point x="219.20384615384617" y="347.0576923076922" type="line"/>
      <point x="306.13230769230773" y="347.0576923076922" type="line" smooth="yes"/>
      <point x="596.0315384615386" y="346.45923076923077"/>
      <point x="893.4423076923077" y="550.0292307692307"/>
      <point x="893.4423076923077" y="869.8723076923078" type="qcurve" smooth="yes"/>
      <point x="893.4423076923077" y="906.7238461538464" type="line" smooth="yes"/>
      <point x="893.4423076923077" y="1064.5353846153848"/>
      <point x="785.7176923076923" y="1156.8976923076925"/>
      <point x="696.8000000000001" y="1156.8976923076925" type="qcurve" smooth="yes"/>
      <point x="607.2761538461539" y="1156.8976923076925"/>
      <point x="512.0500000000001" y="1077.9076923076925"/>
      <point x="512.0500000000001" y="941.6184615384615" type="qcurve" smooth="yes"/>
      <point x="512.0500000000001" y="843.4476923076923"/>
      <point x="601.2084615384615" y="752.7553846153846"/>
      <point x="691.7753846153847" y="752.7553846153846" type="qcurve" smooth="yes"/>
      <point x="780.8669230769233" y="752.7553846153846"/>
      <point x="895.3346153846154" y="832.1769230769232"/>
      <point x="895.3346153846154" y="919.3861538461538" type="qcurve"/>
      <point x="960.4961538461539" y="919.086923076923" type="line"/>
      <point x="960.4961538461539" y="709.2553846153845"/>
      <point x="688.8676923076926" y="498.9038461538461"/>
      <point x="502.36076923076905" y="498.9038461538461" type="qcurve" smooth="yes"/>
      <point x="288.34615384615387" y="498.9038461538461"/>
      <point x="27.015384615384605" y="727.7753846153846"/>
    </contour>
  </outline>
</glyph>
<glyph name="colon" format="2">
  <advance width="639"/>
  <unicode hex="003A"/>
  <outline>
    <contour>
      <point x="79.46153846153842" y="199.87692307692305" type="qcurve" smooth="yes"/>
      <point x="79.46153846153842" y="291.01573626373624"/>
      <point x="203.7138461538462" y="416.12615384615384"/>
      <point x="319.4492307692308" y="416.12615384615384" type="qcurve" smooth="yes"/>
      <point x="435.7446153846153" y="416.12615384615384"/>
      <point x="559.9661538461538" y="291.01573626373624"/>
      <point x="559.9661538461538" y="199.87692307692305" type="qcurve" smooth="yes"/>
      <point x="559.9661538461538" y="106.45727047146401"/>
      <point x="435.6573538461539" y="-18.627692307692307"/>
      <point x="319.3536" y="-18.627692307692307" type="qcurve" smooth="yes"/>
      <point x="204.57600000000002" y="-18.627692307692307"/>
      <point x="79.46153846153842" y="108.84803970223328"/>
    </contour>
    <contour>
      <point x="79.46153846153842" y="848.2" type="qcurve" smooth="yes"/>
      <point x="79.46153846153842" y="939.9251616239981"/>
      <point x="203.7452307692308" y="1064.2803692307696"/>
      <point x="319.48898461538465" y="1064.2803692307696" type="qcurve" smooth="yes"/>
      <point x="435.7927384615385" y="1064.2803692307696"/>
      <point x="559.9661538461538" y="939.9251616239981"/>
      <point x="559.9661538461538" y="847.9292307692308" type="qcurve" smooth="yes"/>
      <point x="559.9661538461538" y="754.4363956043956"/>
      <point x="435.60923076923075" y="629.4246153846155"/>
      <point x="319.31384615384616" y="629.4246153846155" type="qcurve" smooth="yes"/>
      <point x="204.5446153846154" y="629.4246153846155"/>
      <point x="79.46153846153842" y="756.8271648351647"/>
    </contour>
  </outline>
</glyph>
<glyph name="semicolon" format="2">
  <advance width="637"/>
  <unicode hex="003B"/>
  <outline>
    <contour>
      <point x="50.01316923076924" y="-168.64615384615385" type="line"/>
      <point x="97.27901538461539" y="-110.35692307692308"/>
      <point x="137.30461538461537" y="16.81538461538462"/>
      <point x="137.24393846153848" y="87.69538461538461" type="qcurve" smooth="yes"/>
      <point x="137.2" y="400.9538461538462" type="line"/>
      <point x="542.7661538461538" y="400.9538461538462" type="line"/>
      <point x="542.801723076923" y="90.47692307692307" type="line" smooth="yes"/>
      <point x="542.801723076923" y="1.1507692307692374"/>
      <point x="467.5536" y="-172.78769230769223"/>
      <point x="406.24960000000004" y="-222.59076923076924" type="qcurve"/>
    </contour>
    <contour>
      <point x="80.50769230769231" y="848.2" type="qcurve" smooth="yes"/>
      <point x="80.50769230769231" y="939.9251616239981"/>
      <point x="204.25103654642413" y="1064.2803692307696"/>
      <point x="319.62436923076916" y="1064.2803692307696" type="qcurve" smooth="yes"/>
      <point x="435.2875762713799" y="1064.2803692307696"/>
      <point x="558.9200000000001" y="939.9251616239981"/>
      <point x="558.9200000000001" y="847.9292307692308" type="qcurve" smooth="yes"/>
      <point x="558.9200000000001" y="754.5095781637716"/>
      <point x="435.19076923076926" y="629.4246153846155"/>
      <point x="319.31384615384616" y="629.4246153846155" type="qcurve" smooth="yes"/>
      <point x="205.06769230769225" y="629.4246153846155"/>
      <point x="80.50769230769231" y="756.9003473945409"/>
    </contour>
  </outline>
</glyph>
<glyph name="less" format="2">
  <advance width="1175"/>
  <unicode hex="003C"/>
  <outline>
    <contour>
      <point x="1044.675076923077" y="80.81846153846152" type="line"/>
      <point x="120.71876923076921" y="485.20923076923077" type="line"/>
      <point x="120.71876923076921" y="865.4492307692308" type="line"/>
      <point x="1044.675076923077" y="1276.7938461538463" type="line"/>
      <point x="1044.675076923077" y="857.1661538461539" type="line"/>
      <point x="526.1211076923076" y="672.006153846154" type="line"/>
      <point x="1044.675076923077" y="493.8000000000001" type="line"/>
    </contour>
  </outline>
</glyph>
<glyph name="equal" format="2">
  <advance width="1320"/>
  <unicode hex="003D"/>
  <outline>
    <contour>
      <point x="148.4947692307692" y="224.57538461538456" type="line"/>
      <point x="148.4947692307692" y="618.3815384615385" type="line"/>
      <point x="1171.542153846154" y="618.3815384615385" type="line"/>
      <point x="1171.542153846154" y="224.57538461538456" type="line"/>
    </contour>
    <contour>
      <point x="148.4947692307692" y="756.5723076923076" type="line"/>
      <point x="148.4947692307692" y="1150.3784615384616" type="line"/>
      <point x="1171.542153846154" y="1150.3784615384616" type="line"/>
      <point x="1171.542153846154" y="756.5723076923076" type="line"/>
    </contour>
  </outline>
</glyph>
<glyph name="greater" format="2">
  <advance width="1175"/>
  <unicode hex="003E"/>
  <outline>
    <contour>
      <point x="130.08492307692308" y="80.81846153846152" type="line"/>
      <point x="130.08492307692308" y="500.44615384615395" type="line"/>
      <point x="648.6388923076922" y="685.606153846154" type="line"/>
      <point x="130.08492307692308" y="863.8123076923077" type="line"/>
      <point x="130.08492307692308" y="1276.7938461538463" type="line"/>
      <point x="1054.0412307692307" y="872.4030769230768" type="line"/>
      <point x="1054.0412307692307" y="492.1630769230768" type="line"/>
    </contour>
  </outline>
</glyph>
<glyph name="question" format="2">
  <advance width="1272"/>
  <unicode hex="003F"/>
  <outline>
    <contour>
      <point x="331.95384615384614" y="207.87076923076927" type="qcurve" smooth="yes"/>
      <point x="331.95384615384614" y="301.24923076923085"/>
      <point x="468.61907692307693" y="435.88"/>
      <point x="597.8643692307694" y="435.88" type="qcurve" smooth="yes"/>
      <point x="726.5496615384617" y="435.88"/>
      <point x="863.2148923076924" y="301.24923076923085"/>
      <point x="863.2148923076924" y="207.87076923076927" type="qcurve" smooth="yes"/>
      <point x="863.2148923076924" y="114.32307692307691"/>
      <point x="726.5496615384617" y="-20.307692307692307"/>
      <point x="597.999753846154" y="-20.307692307692307" type="qcurve" smooth="yes"/>
      <point x="471.26523076923075" y="-20.307692307692307"/>
      <point x="331.95384615384614" y="114.49230769230769"/>
    </contour>
    <contour>
      <point x="1.313846153846157" y="996.8830769230769" type="line"/>
      <point x="1.313846153846157" y="1083.6646153846154" type="line" smooth="yes"/>
      <point x="1.313846153846157" y="1250.9261538461537"/>
      <point x="324.2432" y="1476.676923076923"/>
      <point x="621.3815384615384" y="1476.676923076923" type="qcurve" smooth="yes"/>
      <point x="936.4803692307692" y="1476.676923076923"/>
      <point x="1269.5713230769231" y="1283.9969230769232"/>
      <point x="1269.5713230769231" y="1123.4676923076922" type="qcurve" smooth="yes"/>
      <point x="1269.5713230769231" y="979.8984615384616"/>
      <point x="1131.405292307692" y="824.2923076923076"/>
      <point x="1029.4564923076923" y="754.2553846153846" type="qcurve" smooth="yes"/>
      <point x="921.4064000000001" y="678.163076923077"/>
      <point x="827.9224615384613" y="595.2153846153847"/>
      <point x="827.9224615384613" y="535.88" type="qcurve" smooth="yes"/>
      <point x="827.9224615384613" y="506.74153846153854" type="line"/>
      <point x="364.6429538461537" y="506.74153846153854" type="line"/>
      <point x="364.6429538461537" y="551.8738461538462" type="line" smooth="yes"/>
      <point x="364.30449230769216" y="653.3230769230769"/>
      <point x="474.31581538461535" y="796.4676923076925"/>
      <point x="601.8876307692306" y="880.4584615384615" type="qcurve" smooth="yes"/>
      <point x="703.6786461538461" y="948.2338461538462"/>
      <point x="770.1841230769231" y="1006.6830769230769"/>
      <point x="770.1841230769231" y="1052.7230769230764" type="qcurve" smooth="yes"/>
      <point x="770.1841230769231" y="1099.0800000000004"/>
      <point x="687.3015384615385" y="1147.6276923076919"/>
      <point x="599.8584615384616" y="1147.6276923076919" type="qcurve" smooth="yes"/>
      <point x="509.3507692307691" y="1147.6276923076919"/>
      <point x="416.35076923076923" y="1085.8830769230767"/>
      <point x="416.35076923076923" y="1021.0800000000002" type="qcurve" smooth="yes"/>
      <point x="416.35076923076923" y="996.8830769230769" type="line"/>
    </contour>
  </outline>
</glyph>
<glyph name="at" format="2">
  <advance width="2393"/>
  <unicode hex="0040"/>
  <outline>
    <contour>
      <point x="651.6235076923077" y="400.0" type="qcurve" smooth="yes"/>
      <point x="651.6235076923077" y="697.3846153846154"/>
      <point x="1017.7901186813186" y="1052.0"/>
      <point x="1258.142276923077" y="1052.0" type="qcurve" smooth="yes"/>
      <point x="1350.8868923076925" y="1052.0"/>
      <point x="1509.7484307692312" y="997.3138461538462"/>
      <point x="1559.1515076923076" y="946.0" type="qcurve"/>
      <point x="1823.9287384615384" y="946.0" type="line"/>
      <point x="1700.7410461538461" y="350.0" type="line" smooth="yes"/>
      <point x="1687.3491485266761" y="286.80115930315"/>
      <point x="1726.8680488063665" y="237.5353846153846"/>
      <point x="1779.9533538461537" y="236.84" type="qcurve" smooth="yes"/>
      <point x="1880.6879371794873" y="236.14461538461546"/>
      <point x="2010.0272000000002" y="432.8646153846153"/>
      <point x="2010.0272000000002" y="614.5353846153848" type="qcurve" smooth="yes"/>
      <point x="2010.0272000000002" y="863.6648339638504"/>
      <point x="1617.677821057155" y="1184.0492307692307"/>
      <point x="1263.4715076923076" y="1184.0492307692307" type="qcurve" smooth="yes"/>
      <point x="907.7232923076924" y="1184.0492307692307"/>
      <point x="447.7773538461538" y="758.2767148953889"/>
      <point x="447.7773538461538" y="424.53538461538466" type="qcurve" smooth="yes"/>
      <point x="447.7773538461538" y="153.3967063921994"/>
      <point x="804.0518857142856" y="-131.53230769230768"/>
      <point x="1105.865353846154" y="-131.53230769230768" type="qcurve" smooth="yes"/>
      <point x="1247.9422769230769" y="-131.53230769230768"/>
      <point x="1447.489969230769" y="-83.79076923076926"/>
      <point x="1513.4961230769231" y="-48.486153846153826" type="qcurve"/>
      <point x="1513.4961230769231" y="-362.95384615384614" type="line"/>
      <point x="1442.8679587512781" y="-405.8012282807307"/>
      <point x="1247.9422769230769" y="-446.0"/>
      <point x="1105.865353846154" y="-446.0" type="qcurve" smooth="yes"/>
      <point x="665.9752615384615" y="-446.0"/>
      <point x="36.116923076923065" y="40.0"/>
      <point x="36.116923076923065" y="460.0" type="qcurve" smooth="yes"/>
      <point x="36.116923076923065" y="880.0"/>
      <point x="757.2306461538462" y="1486.0"/>
      <point x="1263.4715076923076" y="1486.0" type="qcurve" smooth="yes"/>
      <point x="1750.771076923077" y="1486.0"/>
      <point x="2364.0659692307695" y="1000.0"/>
      <point x="2364.0659692307695" y="650.0" type="qcurve" smooth="yes"/>
      <point x="2364.0659692307695" y="360.0"/>
      <point x="2017.1016701252236" y="0.0"/>
      <point x="1739.3244307692307" y="0.0" type="qcurve" smooth="yes"/>
      <point x="1585.2236307692303" y="0.0"/>
      <point x="1397.1747692307692" y="96.28615384615387"/>
      <point x="1355.0112000000001" y="180.30461538461537" type="qcurve"/>
      <point x="1303.3332923076923" y="96.85846153846157"/>
      <point x="1134.2651076923078" y="0.0"/>
      <point x="1039.9730461538463" y="0.0" type="qcurve" smooth="yes"/>
      <point x="862.4041378569029" y="0.0"/>
      <point x="651.6235076923077" y="218.13846153846154"/>
    </contour>
    <contour>
      <point x="1068.0684307692309" y="418.7753846153846" type="qcurve" smooth="yes"/>
      <point x="1068.0684307692309" y="341.1384615384615"/>
      <point x="1125.6940387096772" y="279.84000000000003"/>
      <point x="1180.3884307692306" y="279.84000000000003" type="qcurve" smooth="yes"/>
      <point x="1232.4237538461537" y="279.84000000000003"/>
      <point x="1313.6866461538461" y="337.2369230769232"/>
      <point x="1331.0395076923073" y="411.8646153846154" type="qcurve" smooth="yes"/>
      <point x="1403.3016615384615" y="774.633846153846" type="line"/>
      <point x="1379.3016615384613" y="789.5107692307695"/>
      <point x="1319.8985846153848" y="800.52"/>
      <point x="1290.0431999999998" y="800.52" type="qcurve" smooth="yes"/>
      <point x="1198.3362058007572" y="800.52"/>
      <point x="1068.0684307692309" y="572.1046153846155"/>
    </contour>
  </outline>
</glyph>
<glyph name="A" format="2">
  <advance width="1663"/>
  <unicode hex="0041"/>
  <anchor x="750.8166153846154" y="1432.0" name="top"/>
  <outline>
    <contour>
      <point x="-17.630769230769232" y="0.0" type="line"/>
      <point x="568.0276923076924" y="1458.0153846153848" type="line"/>
      <point x="1109.3224615384615" y="1458.0153846153848" type="line"/>
      <point x="1680.427076923077" y="0.0" type="line"/>
      <point x="1181.584" y="0.0" type="line"/>
      <point x="871.0809846153848" y="831.6738461538462" type="line" smooth="yes"/>
      <point x="852.7148307692308" y="879.3446153846152"/>
      <point x="828.4840615384617" y="951.6123076923077"/>
      <point x="820.8286769230771" y="972.3630769230771" type="qcurve"/>
      <point x="815.1763692307692" y="972.3630769230771" type="line"/>
      <point x="807.6225230769231" y="951.5784615384615"/>
      <point x="783.0009846153846" y="880.0399999999998"/>
      <point x="766.5856" y="832.1999999999999" type="qcurve" smooth="yes"/>
      <point x="466.9368615384615" y="0.0" type="line"/>
    </contour>
    <contour>
      <point x="397.6523076923077" y="225.6492307692307" type="line"/>
      <point x="446.16615384615386" y="540.2399999999999" type="line"/>
      <point x="1202.4224" y="540.2399999999999" type="line"/>
      <point x="1252.415876923077" y="225.6492307692307" type="line"/>
    </contour>
  </outline>
</glyph>
<glyph name="B" format="2">
  <advance width="1536"/>
  <unicode hex="0042"/>
  <outline>
    <contour>
      <point x="95.16923076923078" y="0.0" type="line"/>
      <point x="95.16923076923078" y="1456.0" type="line"/>
      <point x="911.716676923077" y="1456.0" type="line" smooth="yes"/>
      <point x="1183.4293757496741" y="1456.0"/>
      <point x="1436.7892923076922" y="1253.6153846153845"/>
      <point x="1436.7892923076922" y="1081.836923076923" type="qcurve" smooth="yes"/>
      <point x="1436.7892923076922" y="959.48"/>
      <point x="1309.666216428292" y="801.4707696018543"/>
      <point x="1209.0877538461539" y="767.2707692307691" type="qcurve"/>
      <point x="1209.0877538461539" y="763.2707692307691" type="line"/>
      <point x="1331.7538353880932" y="736.4256993556315"/>
      <point x="1505.4785230769235" y="575.7138461538459"/>
      <point x="1505.4785230769235" y="417.0123076923077" type="qcurve" smooth="yes"/>
      <point x="1505.4785230769235" y="220.78153846153847"/>
      <point x="1195.682764102564" y="0.0"/>
      <point x="932.5905230769229" y="0.0" type="qcurve" smooth="yes"/>
    </contour>
    <contour>
      <point x="573.7997538461537" y="311.1015384615385" type="line"/>
      <point x="802.5536" y="311.1015384615385" type="line" smooth="yes"/>
      <point x="901.9895681697611" y="311.1015384615385"/>
      <point x="1005.9905230769232" y="393.1446153846154"/>
      <point x="1005.9905230769232" y="463.87384615384616" type="qcurve" smooth="yes"/>
      <point x="1005.9905230769232" y="531.3353846153847"/>
      <point x="901.9895681697611" y="610.8246153846152"/>
      <point x="802.5536" y="610.8246153846152" type="qcurve" smooth="yes"/>
      <point x="573.7997538461537" y="610.8246153846152" type="line"/>
    </contour>
    <contour>
      <point x="573.7997538461537" y="850.3753846153846" type="line"/>
      <point x="787.2428307692307" y="850.3753846153846" type="line" smooth="yes"/>
      <point x="881.734352864157" y="850.3753846153846"/>
      <point x="969.9843692307691" y="924.5415384615386"/>
      <point x="969.9843692307691" y="991.1261538461537" type="qcurve" smooth="yes"/>
      <point x="969.9843692307691" y="1056.88"/>
      <point x="881.734352864157" y="1129.2615384615385"/>
      <point x="787.2428307692307" y="1129.2615384615385" type="qcurve" smooth="yes"/>
      <point x="573.7997538461537" y="1129.2615384615385" type="line"/>
    </contour>
  </outline>
</glyph>
<glyph name="C" format="2">
  <advance width="1597"/>
  <unicode hex="0043"/>
  <anchor x="777.0663384615383" y="0" name="bottom"/>
  <outline>
    <contour>
      <point x="51.433846153846154" y="703.9661538461539" type="qcurve" smooth="yes"/>
      <point x="51.433846153846154" y="751.0184615384615" type="line" smooth="yes"/>
      <point x="51.433846153846154" y="1127.1600000000003"/>
      <point x="493.8129230769231" y="1478.8246153846155"/>
      <point x="848.1740307692306" y="1478.8246153846155" type="qcurve" smooth="yes"/>
      <point x="1180.4193670647044" y="1478.8246153846155"/>
      <point x="1558.9849846153845" y="1221.4984615384612"/>
      <point x="1571.6659692307692" y="953.8584615384617" type="qcurve" smooth="yes"/>
      <point x="1573.0690461538463" y="856.1784615384613" type="line"/>
      <point x="1109.0540307692308" y="856.1784615384613" type="line"/>
      <point x="1107.6848000000002" y="989.1261538461538" type="line" smooth="yes"/>
      <point x="1101.0508831000107" y="1055.691538305541"/>
      <point x="979.7124923076924" y="1146.8153846153843"/>
      <point x="858.5863384615383" y="1146.8153846153843" type="qcurve" smooth="yes"/>
      <point x="731.2971076923076" y="1146.8153846153843"/>
      <point x="577.0786461538462" y="1006.8177653003926"/>
      <point x="577.0786461538462" y="868.8523076923077" type="qcurve" smooth="yes"/>
      <point x="577.0786461538462" y="588.1446153846153" type="line" smooth="yes"/>
      <point x="577.0786461538462" y="444.66838854576076"/>
      <point x="731.9217230769231" y="300.3323076923077"/>
      <point x="858.9247999999998" y="300.3323076923077" type="qcurve" smooth="yes"/>
      <point x="981.6294153846155" y="300.3323076923077"/>
      <point x="1101.5247292538572" y="401.4869232329204"/>
      <point x="1107.8540307692308" y="491.55384615384605" type="qcurve" smooth="yes"/>
      <point x="1109.2232615384617" y="592.8676923076923" type="line"/>
      <point x="1573.0690461538463" y="592.8676923076923" type="line"/>
      <point x="1571.8351999999998" y="478.9323076923077" type="line" smooth="yes"/>
      <point x="1561.5080615384616" y="237.9292307692307"/>
      <point x="1185.157828603166" y="-22.824615384615385"/>
      <point x="848.5124923076921" y="-22.824615384615385" type="qcurve" smooth="yes"/>
      <point x="494.3144615384615" y="-22.824615384615385"/>
      <point x="51.433846153846154" y="333.26769230769224"/>
    </contour>
  </outline>
</glyph>
<glyph name="D" format="2">
  <advance width="1594"/>
  <unicode hex="0044"/>
  <outline>
    <contour>
      <point x="95.16923076923078" y="0.0" type="line"/>
      <point x="95.16923076923078" y="1456.0" type="line"/>
      <point x="815.4316307692308" y="1456.0" type="line" smooth="yes"/>
      <point x="1146.6389699546266" y="1456.0"/>
      <point x="1543.9379692307693" y="1089.236923076923"/>
      <point x="1543.9379692307693" y="755.8492307692308" type="qcurve" smooth="yes"/>
      <point x="1543.9379692307693" y="708.4584615384616" type="line" smooth="yes"/>
      <point x="1543.9379692307693" y="376.476923076923"/>
      <point x="1142.2974314930882" y="0.0"/>
      <point x="815.4316307692308" y="0.0" type="qcurve" smooth="yes"/>
    </contour>
    <contour>
      <point x="574.7424000000001" y="329.3107692307692" type="line"/>
      <point x="763.9731692307694" y="329.3107692307692" type="line" smooth="yes"/>
      <point x="891.1509721636224" y="329.3107692307692"/>
      <point x="1047.1085538461537" y="484.6799999999999"/>
      <point x="1047.1085538461537" y="650.1015384615384" type="qcurve" smooth="yes"/>
      <point x="1047.1085538461537" y="805.0123076923077" type="line" smooth="yes"/>
      <point x="1047.1085538461537" y="971.3876923076922"/>
      <point x="895.0309721636223" y="1112.7815384615387"/>
      <point x="763.9731692307694" y="1112.7815384615387" type="qcurve" smooth="yes"/>
      <point x="574.7424000000001" y="1112.7815384615387" type="line"/>
    </contour>
  </outline>
</glyph>
<glyph name="E" format="2">
  <advance width="1406"/>
  <unicode hex="0045"/>
  <anchor x="679.6408615384616" y="1349.587692307692" name="top"/>
  <outline>
    <contour>
      <point x="95.16923076923078" y="0.0" type="line"/>
      <point x="95.16923076923078" y="1456.0" type="line"/>
      <point x="1341.0008615384618" y="1456.0" type="line"/>
      <point x="1341.0008615384618" y="1077.9384615384615" type="line"/>
      <point x="565.9270153846154" y="1077.9384615384615" type="line"/>
      <point x="565.9270153846154" y="896.1630769230769" type="line"/>
      <point x="1248.5639384615386" y="896.1630769230769" type="line"/>
      <point x="1248.5639384615386" y="567.9476923076924" type="line"/>
      <point x="565.9270153846154" y="567.9476923076924" type="line"/>
      <point x="565.9270153846154" y="364.15384615384625" type="line"/>
      <point x="1358.785476923077" y="364.15384615384625" type="line"/>
      <point x="1358.785476923077" y="0.0" type="line"/>
    </contour>
  </outline>
</glyph>
<glyph name="F" format="2">
  <advance width="1302"/>
  <unicode hex="0046"/>
  <outline>
    <contour>
      <point x="95.16923076923078" y="0.0" type="line"/>
      <point x="95.16923076923078" y="1456.0" type="line"/>
      <point x="1277.5947076923078" y="1456.0" type="line"/>
      <point x="1277.5947076923078" y="1078.633846153846" type="line"/>
      <point x="588.3116307692306" y="1078.633846153846" type="line"/>
      <point x="588.3116307692306" y="865.1876923076924" type="line"/>
      <point x="1194.988553846154" y="865.1876923076924" type="line"/>
      <point x="1194.988553846154" y="524.6030769230769" type="line"/>
      <point x="588.3116307692306" y="524.6030769230769" type="line"/>
      <point x="588.3116307692306" y="0.0" type="line"/>
    </contour>
  </outline>
</glyph>
<glyph name="G" format="2">
  <advance width="1617"/>
  <unicode hex="0047"/>
  <outline>
    <contour>
      <point x="50.738461538461515" y="706.8430769230771" type="qcurve" smooth="yes"/>
      <point x="50.738461538461515" y="752.5415384615384" type="line" smooth="yes"/>
      <point x="50.738461538461515" y="1113.6492307692306"/>
      <point x="504.29600000000005" y="1479.215384615385"/>
      <point x="864.3555692307693" y="1479.215384615385" type="qcurve" smooth="yes"/>
      <point x="1194.448030493026" y="1479.215384615385"/>
      <point x="1553.1916307692309" y="1217.556923076923"/>
      <point x="1564.7859692307695" y="1000.5661538461535" type="qcurve" smooth="yes"/>
      <point x="1566.6813538461543" y="954.3138461538459" type="line"/>
      <point x="1104.1771076923073" y="954.3138461538459" type="line"/>
      <point x="1102.6201846153847" y="974.1046153846154" type="line" smooth="yes"/>
      <point x="1096.046276923077" y="1049.926153846154"/>
      <point x="967.5771076923079" y="1131.3046153846149"/>
      <point x="846.6324923076924" y="1131.3046153846149" type="qcurve" smooth="yes"/>
      <point x="718.6355692307692" y="1131.3046153846149"/>
      <point x="563.1709538461538" y="1000.7799438517686"/>
      <point x="563.1709538461538" y="855.5476923076923" type="qcurve" smooth="yes"/>
      <point x="563.1709538461538" y="596.0676923076924" type="line" smooth="yes"/>
      <point x="563.1709538461538" y="457.0877484559237"/>
      <point x="722.4294153846155" y="308.3630769230769"/>
      <point x="863.087876923077" y="308.3630769230769" type="qcurve" smooth="yes"/>
      <point x="949.5191384615385" y="308.3630769230769"/>
      <point x="1068.7108923076923" y="332.6984615384615"/>
      <point x="1111.9175384615385" y="357.09230769230777" type="qcurve"/>
      <point x="1111.9175384615385" y="503.916923076923" type="line"/>
      <point x="844.4940307692308" y="503.916923076923" type="line"/>
      <point x="844.4940307692308" y="816.6861538461538" type="line"/>
      <point x="1578.0167384615386" y="818.076923076923" type="line"/>
      <point x="1578.0167384615386" y="203.57538461538462" type="line"/>
      <point x="1496.1211666306008" y="123.48486618257567"/>
      <point x="1140.564911888112" y="-23.04615384615384"/>
      <point x="857.3740307692309" y="-23.04615384615384" type="qcurve" smooth="yes"/>
      <point x="502.0350769230769" y="-23.04615384615384"/>
      <point x="50.738461538461515" y="342.6892307692308"/>
    </contour>
  </outline>
</glyph>
<glyph name="H" format="2">
  <advance width="1632"/>
  <unicode hex="0048"/>
  <outline>
    <contour>
      <point x="95.16923076923078" y="0.0" type="line"/>
      <point x="95.16923076923078" y="1456.0" type="line"/>
      <point x="588.6500923076923" y="1456.0" type="line"/>
      <point x="588.6500923076923" y="953.1969230769231" type="line"/>
      <point x="1044.3793230769231" y="953.1969230769231" type="line"/>
      <point x="1044.3793230769231" y="1456.0" type="line"/>
      <point x="1537.0294153846155" y="1456.0" type="line"/>
      <point x="1537.0294153846155" y="0.0" type="line"/>
      <point x="1044.3793230769231" y="0.0" type="line"/>
      <point x="1044.3793230769231" y="550.9199999999998" type="line"/>
      <point x="588.6500923076923" y="550.9199999999998" type="line"/>
      <point x="588.6500923076923" y="0.0" type="line"/>
    </contour>
  </outline>
</glyph>
<glyph name="I" format="2">
  <advance width="696"/>
  <unicode hex="0049"/>
  <anchor x="351.3588923076922" y="1432.0" name="top"/>
  <outline>
    <contour>
      <point x="97.95076923076918" y="0.0" type="line"/>
      <point x="97.95076923076918" y="1456.0" type="line"/>
      <point x="597.5547076923078" y="1456.0" type="line"/>
      <point x="597.5547076923078" y="0.0" type="line"/>
    </contour>
  </outline>
</glyph>
<glyph name="J" format="2">
  <advance width="1401"/>
  <unicode hex="004A"/>
  <outline>
    <contour>
      <point x="25.0" y="524.3846153846154" type="qcurve" smooth="yes"/>
      <point x="25.0" y="610.3538461538463" type="line"/>
      <point x="460.6285538461538" y="610.3538461538463" type="line"/>
      <point x="460.6285538461538" y="476.6984615384615" type="line" smooth="yes"/>
      <point x="460.6285538461538" y="384.1846153846154"/>
      <point x="555.2131692307693" y="300.2061538461539"/>
      <point x="639.5116307692307" y="300.2061538461539" type="qcurve" smooth="yes"/>
      <point x="727.2439384615384" y="300.2061538461539"/>
      <point x="822.4408615384616" y="391.75675798527976"/>
      <point x="822.4408615384616" y="492.63999999999993" type="qcurve" smooth="yes"/>
      <point x="822.4408615384616" y="1456.0" type="line"/>
      <point x="1315.7863384615387" y="1456.0" type="line"/>
      <point x="1315.7863384615387" y="542.0553846153846" type="line" smooth="yes"/>
      <point x="1315.7863384615387" y="275.6276923076923"/>
      <point x="992.4784000000002" y="-23.38461538461538"/>
      <point x="670.2593230769228" y="-23.38461538461538" type="qcurve" smooth="yes"/>
      <point x="357.58793846153844" y="-23.38461538461538"/>
      <point x="25.0" y="242.95692307692312"/>
    </contour>
  </outline>
</glyph>
<glyph name="K" format="2">
  <advance width="1593"/>
  <unicode hex="004B"/>
  <outline>
    <contour>
      <point x="95.16923076923078" y="0.0" type="line"/>
      <point x="95.16923076923078" y="1456.0" type="line"/>
      <point x="588.6500923076923" y="1456.0" type="line"/>
      <point x="588.6500923076923" y="961.4707692307694" type="line"/>
      <point x="1084.9846153846156" y="1456.0" type="line"/>
      <point x="1616.8654769230775" y="1456.0" type="line"/>
      <point x="588.6500923076923" y="405.14461538461535" type="line"/>
      <point x="588.6500923076923" y="0.0" type="line"/>
    </contour>
    <contour>
      <point x="1104.9337846153846" y="0.0" type="line"/>
      <point x="608.7638153846156" y="653.4584615384615" type="line"/>
      <point x="917.1964307692307" y="1003.492307692308" type="line"/>
      <point x="1685.6753230769232" y="0.0" type="line"/>
    </contour>
  </outline>
</glyph>
<glyph name="L" format="2">
  <advance width="1292"/>
  <unicode hex="004C"/>
  <outline>
    <contour>
      <point x="95.16923076923078" y="0.0" type="line"/>
      <point x="95.16923076923078" y="1456.0" type="line"/>
      <point x="588.6500923076923" y="1456.0" type="line"/>
      <point x="588.6500923076923" y="380.7692307692308" type="line"/>
      <point x="1273.8316307692307" y="380.7692307692308" type="line"/>
      <point x="1273.8316307692307" y="0.0" type="line"/>
    </contour>
  </outline>
</glyph>
<glyph name="M" format="2">
  <advance width="2242"/>
  <unicode hex="004D"/>
  <outline>
    <contour>
      <point x="95.16923076923078" y="0.0" type="line"/>
      <point x="95.16923076923078" y="1456.0" type="line"/>
      <point x="764.0787692307692" y="1456.0" type="line"/>
      <point x="1080.8344615384613" y="754.3446153846155" type="line" smooth="yes"/>
      <point x="1091.4221538461538" y="724.0338461538463"/>
      <point x="1111.582153846154" y="663.5015384615384"/>
      <point x="1118.680615384615" y="632.4953846153846" type="qcurve"/>
      <point x="1124.2344615384618" y="632.4953846153846" type="line"/>
      <point x="1131.3329230769227" y="663.5015384615384"/>
      <point x="1148.0344615384615" y="724.0338461538463"/>
      <point x="1158.6221538461537" y="754.3446153846155" type="qcurve" smooth="yes"/>
      <point x="1477.9060923076925" y="1456.0" type="line"/>
      <point x="2146.9539692307694" y="1456.0" type="line"/>
      <point x="2146.9539692307694" y="0.0" type="line"/>
      <point x="1662.8578461538461" y="0.0" type="line"/>
      <point x="1662.9932307692309" y="726.2707692307692" type="line" smooth="yes"/>
      <point x="1662.9932307692309" y="757.003076923077"/>
      <point x="1664.5132307692309" y="828.0276923076924"/>
      <point x="1667.2240000000002" y="858.7600000000001" type="qcurve"/>
      <point x="1662.4024615384615" y="858.7600000000001" type="line"/>
      <point x="1654.8301538461535" y="826.636923076923"/>
      <point x="1637.0978461538461" y="758.3415384615384"/>
      <point x="1626.3932307692307" y="727.0492307692308" type="qcurve" smooth="yes"/>
      <point x="1318.1079384615384" y="0.0" type="line"/>
      <point x="906.1224615384617" y="0.0" type="line"/>
      <point x="596.8740923076922" y="725.8984615384616" type="line" smooth="yes"/>
      <point x="586.0002461538462" y="757.3261538461537"/>
      <point x="567.8433230769232" y="826.6400000000001"/>
      <point x="560.7971692307693" y="857.9476923076926" type="qcurve"/>
      <point x="554.0771692307692" y="857.9476923076926" type="line"/>
      <point x="556.1756307692307" y="826.2"/>
      <point x="559.6464" y="755.9538461538459"/>
      <point x="559.6464" y="725.5600000000001" type="qcurve" smooth="yes"/>
      <point x="559.8156307692307" y="0.0" type="line"/>
    </contour>
  </outline>
</glyph>
<glyph name="N" format="2">
  <advance width="1604"/>
  <unicode hex="004E"/>
  <anchor x="735.7135999999999" y="1432.0" name="top"/>
  <outline>
    <contour>
      <point x="95.16923076923078" y="0.0" type="line"/>
      <point x="95.16923076923078" y="1456.0" type="line"/>
      <point x="588.2243692307693" y="1456.0" type="line"/>
      <point x="1023.8243692307693" y="796.0184615384616" type="line" smooth="yes"/>
      <point x="1037.1135999999997" y="767.4523076923078"/>
      <point x="1060.790523076923" y="701.3784615384617"/>
      <point x="1069.267446153846" y="674.4830769230769" type="qcurve"/>
      <point x="1074.630523076923" y="674.4830769230769" type="line"/>
      <point x="1072.5320615384612" y="705.8923076923076"/>
      <point x="1072.6736000000003" y="770.9230769230768"/>
      <point x="1072.6736000000003" y="802.3323076923076" type="qcurve" smooth="yes"/>
      <point x="1072.6736000000003" y="1456.0" type="line"/>
      <point x="1491.0395076923073" y="1456.0" type="line"/>
      <point x="1491.0395076923073" y="0.0" type="line"/>
      <point x="1009.5012923076924" y="0.0" type="line"/>
      <point x="560.670523076923" y="669.3384615384616" type="line" smooth="yes"/>
      <point x="546.1936000000001" y="696.547692307692"/>
      <point x="521.8059076923076" y="755.3907692307693"/>
      <point x="513.2612923076923" y="782.7600000000001" type="qcurve"/>
      <point x="508.0674461538463" y="782.7600000000001" type="line"/>
      <point x="510.72590769230766" y="753.3138461538459"/>
      <point x="511.70436923076926" y="705.7723076923075"/>
      <point x="511.70436923076926" y="676.5784615384616" type="qcurve" smooth="yes"/>
      <point x="512.2120615384616" y="0.0" type="line"/>
    </contour>
  </outline>
</glyph>
<glyph name="O" format="2">
  <advance width="1703"/>
  <unicode hex="004F"/>
  <anchor x="778.1340307692309" y="1432.0" name="top"/>
  <outline>
    <contour>
      <point x="50.738461538461515" y="706.8430769230771" type="qcurve" smooth="yes"/>
      <point x="50.738461538461515" y="752.5415384615384" type="line" smooth="yes"/>
      <point x="50.738461538461515" y="1118.76"/>
      <point x="503.98732307692296" y="1479.3846153846157"/>
      <point x="851.5986461538463" y="1479.3846153846157" type="qcurve" smooth="yes"/>
      <point x="1198.9297590994372" y="1479.3846153846157"/>
      <point x="1652.8311384615388" y="1118.76"/>
      <point x="1652.8311384615388" y="752.5415384615384" type="qcurve" smooth="yes"/>
      <point x="1652.8311384615388" y="706.8430769230771" type="line" smooth="yes"/>
      <point x="1652.8311384615388" y="338.08615384615393"/>
      <point x="1198.9297590994372" y="-23.38461538461538"/>
      <point x="851.5986461538463" y="-23.38461538461538" type="qcurve" smooth="yes"/>
      <point x="504.81809230769227" y="-23.38461538461538"/>
      <point x="50.738461538461515" y="338.08615384615393"/>
    </contour>
    <contour>
      <point x="565.2571076923077" y="588.3630769230771" type="line" smooth="yes"/>
      <point x="565.2571076923077" y="446.09608085345315"/>
      <point x="717.8847999999998" y="302.17846153846153"/>
      <point x="851.9371076923078" y="301.5015384615385" type="qcurve" smooth="yes"/>
      <point x="985.5832615384616" y="300.8246153846154"/>
      <point x="1138.447876923077" y="446.09608085345315"/>
      <point x="1138.447876923077" y="587.8892307692308" type="qcurve" smooth="yes"/>
      <point x="1138.447876923077" y="867.8338461538461" type="line" smooth="yes"/>
      <point x="1138.447876923077" y="1006.017765300393"/>
      <point x="985.6848000000001" y="1146.1907692307693"/>
      <point x="851.9371076923078" y="1146.8676923076923" type="qcurve" smooth="yes"/>
      <point x="717.6478769230769" y="1147.5446153846153"/>
      <point x="565.2571076923077" y="1006.017765300393"/>
      <point x="565.2571076923077" y="868.003076923077" type="qcurve" smooth="yes"/>
    </contour>
  </outline>
</glyph>
<glyph name="P" format="2">
  <advance width="1557"/>
  <unicode hex="0050"/>
  <outline>
    <contour>
      <point x="95.16923076923078" y="0.0" type="line"/>
      <point x="95.16923076923078" y="1456.0" type="line"/>
      <point x="949.1116307692307" y="1456.0" type="line" smooth="yes"/>
      <point x="1227.1808261970962" y="1456.0"/>
      <point x="1527.3371076923079" y="1160.6338461538462"/>
      <point x="1527.3371076923079" y="913.1846153846153" type="qcurve" smooth="yes"/>
      <point x="1527.3371076923079" y="670.1046153846153"/>
      <point x="1234.1346723509425" y="375.7476923076922"/>
      <point x="940.0716307692306" y="375.7476923076922" type="qcurve" smooth="yes"/>
      <point x="588.6500923076923" y="375.7476923076922" type="line"/>
      <point x="588.6500923076923" y="0.0" type="line"/>
    </contour>
    <contour>
      <point x="588.6500923076923" y="696.2399999999999" type="line"/>
      <point x="821.8562461538462" y="696.2399999999999" type="line" smooth="yes"/>
      <point x="939.8873572649572" y="696.2399999999999"/>
      <point x="1035.2131692307692" y="814.9538461538461"/>
      <point x="1035.2131692307692" y="902.8553846153848" type="qcurve" smooth="yes"/>
      <point x="1035.2131692307692" y="995.1476923076925"/>
      <point x="939.8873572649575" y="1110.695384615385"/>
      <point x="821.8562461538462" y="1110.695384615385" type="qcurve" smooth="yes"/>
      <point x="588.6500923076923" y="1110.695384615385" type="line"/>
    </contour>
  </outline>
</glyph>
<glyph name="Q" format="2">
  <advance width="1703"/>
  <unicode hex="0051"/>
  <outline>
    <contour>
      <point x="50.738461538461515" y="706.8430769230771" type="qcurve" smooth="yes"/>
      <point x="50.738461538461515" y="752.5415384615384" type="line" smooth="yes"/>
      <point x="50.738461538461515" y="1117.4061538461538"/>
      <point x="503.78424615384614" y="1479.3846153846157"/>
      <point x="851.5986461538463" y="1479.3846153846157" type="qcurve" smooth="yes"/>
      <point x="1199.2776615384612" y="1479.3846153846157"/>
      <point x="1652.8311384615386" y="1117.4061538461538"/>
      <point x="1652.8311384615386" y="752.5415384615384" type="qcurve" smooth="yes"/>
      <point x="1652.8311384615386" y="706.8430769230771" type="line" smooth="yes"/>
      <point x="1652.8311384615386" y="339.44"/>
      <point x="1199.2776615384612" y="-23.38461538461538"/>
      <point x="851.5986461538463" y="-23.38461538461538" type="qcurve" smooth="yes"/>
      <point x="504.61501538461545" y="-23.38461538461538"/>
      <point x="50.738461538461515" y="339.44"/>
    </contour>
    <contour>
      <point x="565.2571076923077" y="588.3630769230771" type="line" smooth="yes"/>
      <point x="565.2571076923077" y="447.4400000000001"/>
      <point x="717.4448" y="302.1107692307693"/>
      <point x="851.9371076923078" y="301.4338461538462" type="qcurve" smooth="yes"/>
      <point x="985.9555692307692" y="300.7569230769231"/>
      <point x="1138.4478769230768" y="447.4400000000001"/>
      <point x="1138.4478769230768" y="587.8892307692308" type="qcurve" smooth="yes"/>
      <point x="1138.4478769230768" y="867.8338461538461" type="line" smooth="yes"/>
      <point x="1138.4478769230768" y="1004.673846153846"/>
      <point x="985.9555692307692" y="1146.3261538461538"/>
      <point x="851.9371076923078" y="1147.0030769230768" type="qcurve" smooth="yes"/>
      <point x="717.3094153846154" y="1147.6799999999998"/>
      <point x="565.2571076923077" y="1004.673846153846"/>
      <point x="565.2571076923077" y="868.003076923077" type="qcurve" smooth="yes"/>
    </contour>
    <contour>
      <point x="1309.4461538461537" y="-257.63076923076926" type="line"/>
      <point x="820.2828307692308" y="127.90769230769232" type="line"/>
      <point x="1084.473353846154" y="414.5446153846155" type="line"/>
      <point x="1578.0089846153846" y="32.25846153846154" type="line"/>
    </contour>
  </outline>
</glyph>
<glyph name="R" format="2">
  <advance width="1613"/>
  <unicode hex="0052"/>
  <outline>
    <contour>
      <point x="95.16923076923078" y="0.0" type="line"/>
      <point x="95.16923076923078" y="1456.0" type="line"/>
      <point x="932.6562461538463" y="1456.0" type="line" smooth="yes"/>
      <point x="1187.471678184111" y="1456.0"/>
      <point x="1502.1555692307693" y="1188.630769230769"/>
      <point x="1502.1555692307693" y="970.3753846153845" type="qcurve" smooth="yes"/>
      <point x="1502.1555692307693" y="745.2830769230771"/>
      <point x="1164.9362340479195" y="459.44923076923084"/>
      <point x="926.3977846153844" y="459.44923076923084" type="qcurve" smooth="yes"/>
      <point x="588.6500923076923" y="459.44923076923084" type="line"/>
      <point x="588.6500923076923" y="0.0" type="line"/>
    </contour>
    <contour>
      <point x="588.6500923076923" y="767.4123076923075" type="line"/>
      <point x="813.7454769230768" y="767.4123076923075" type="line" smooth="yes"/>
      <point x="917.015081912682" y="767.4123076923075"/>
      <point x="1003.4685538461536" y="866.1507692307691"/>
      <point x="1003.4685538461536" y="941.1353846153845" type="qcurve" smooth="yes"/>
      <point x="1003.4685538461536" y="1016.4923076923073"/>
      <point x="916.845851143451" y="1119.458461538462"/>
      <point x="813.7454769230768" y="1119.458461538462" type="qcurve" smooth="yes"/>
      <point x="588.6500923076923" y="1119.458461538462" type="line"/>
    </contour>
    <contour>
      <point x="1078.977969230769" y="0.0" type="line"/>
      <point x="720.4241230769231" y="668.3538461538463" type="line"/>
      <point x="1220.257230769231" y="668.3538461538463" type="line"/>
      <point x="1622.5126153846154" y="0.0" type="line"/>
    </contour>
  </outline>
</glyph>
<glyph name="S" format="2">
  <advance width="1462"/>
  <unicode hex="0053"/>
  <outline>
    <contour>
      <point x="27.57846153846154" y="392.87076923076927" type="qcurve" smooth="yes"/>
      <point x="26.732307692307693" y="466.2092307692307" type="line"/>
      <point x="473.5547076923077" y="466.2092307692307" type="line"/>
      <point x="474.80701538461545" y="435.98461538461544" type="line" smooth="yes"/>
      <point x="476.9547076923077" y="361.476923076923"/>
      <point x="605.8223999999998" y="292.1323076923076"/>
      <point x="732.7116307692306" y="292.1323076923076" type="qcurve" smooth="yes"/>
      <point x="854.0347076923081" y="292.1323076923076"/>
      <point x="973.1977846153845" y="351.5907692307691"/>
      <point x="973.1977846153845" y="402.65538461538466" type="qcurve" smooth="yes"/>
      <point x="973.1977846153848" y="453.1323076923076"/>
      <point x="857.295753846154" y="506.89538461538456"/>
      <point x="603.673476923077" y="562.2553846153849" type="qcurve" smooth="yes"/>
      <point x="304.1281230769231" y="631.9353846153846"/>
      <point x="46.463630769230754" y="830.3476923076922"/>
      <point x="46.463630769230754" y="1025.0892307692309" type="qcurve" smooth="yes"/>
      <point x="46.463630769230754" y="1238.7815384615385"/>
      <point x="405.1454769230769" y="1477.9938461538466"/>
      <point x="710.3177846153847" y="1477.9938461538466" type="qcurve" smooth="yes"/>
      <point x="1019.2644923076923" y="1477.9938461538466"/>
      <point x="1386.0201846153846" y="1262.4953846153842"/>
      <point x="1388.8971076923076" y="1071.2769230769227" type="qcurve" smooth="yes"/>
      <point x="1389.5740307692306" y="1012.603076923077" type="line"/>
      <point x="950.1300923076922" y="1012.603076923077" type="line"/>
      <point x="949.1823999999999" y="1033.8061538461536" type="line" smooth="yes"/>
      <point x="947.2531692307691" y="1089.1169230769233"/>
      <point x="837.939323076923" y="1152.403076923077"/>
      <point x="719.7147076923077" y="1152.403076923077" type="qcurve" smooth="yes"/>
      <point x="605.4808615384616" y="1152.403076923077"/>
      <point x="505.619323076923" y="1102.036923076923"/>
      <point x="505.619323076923" y="1057.7292307692308" type="qcurve" smooth="yes"/>
      <point x="505.619323076923" y="1017.9046153846152"/>
      <point x="613.504" y="974.4492307692307"/>
      <point x="890.7990153846154" y="918.2184615384615" type="qcurve" smooth="yes"/>
      <point x="1167.4232615384615" y="860.9015384615385"/>
      <point x="1429.996553846154" y="660.0584615384614"/>
      <point x="1429.996553846154" y="455.53538461538477" type="qcurve" smooth="yes"/>
      <point x="1429.996553846154" y="228.59384615384616"/>
      <point x="1055.4249846153846" y="-23.21538461538461"/>
      <point x="740.1731692307692" y="-23.21538461538461" type="qcurve" smooth="yes"/>
      <point x="424.95052307692316" y="-23.21538461538461"/>
      <point x="29.778461538461535" y="189.40923076923076"/>
    </contour>
  </outline>
</glyph>
<glyph name="T" format="2">
  <advance width="1474"/>
  <unicode hex="0054"/>
  <outline>
    <contour>
      <point x="11.716923076923077" y="1075.9076923076923" type="line"/>
      <point x="11.716923076923077" y="1456.0" type="line"/>
      <point x="1462.3485538461543" y="1456.0" type="line"/>
      <point x="1462.3485538461543" y="1075.9076923076923" type="line"/>
      <point x="987.8100923076922" y="1075.9076923076923" type="line"/>
      <point x="987.8100923076922" y="0.0" type="line"/>
      <point x="488.20615384615377" y="0.0" type="line"/>
      <point x="488.20615384615377" y="1075.9076923076923" type="line"/>
    </contour>
  </outline>
</glyph>
<glyph name="U" format="2">
  <advance width="1603"/>
  <unicode hex="0055"/>
  <anchor x="735.3608615384616" y="1432.0" name="top"/>
  <outline>
    <contour>
      <point x="81.82153846153845" y="579.7969230769231" type="qcurve" smooth="yes"/>
      <point x="81.82153846153845" y="1456.0" type="line"/>
      <point x="573.0808615384615" y="1456.0" type="line"/>
      <point x="573.0808615384615" y="521.7292307692309" type="line" smooth="yes"/>
      <point x="573.0808615384615" y="403.91999999999996"/>
      <point x="694.8347076923078" y="303.7569230769231"/>
      <point x="797.8193230769231" y="303.7569230769231" type="qcurve" smooth="yes"/>
      <point x="900.0408615384614" y="303.7569230769231"/>
      <point x="1016.9208615384617" y="403.7353846153846"/>
      <point x="1016.9208615384617" y="521.7292307692309" type="qcurve" smooth="yes"/>
      <point x="1016.9208615384617" y="1456.0" type="line"/>
      <point x="1511.0971076923076" y="1456.0" type="line"/>
      <point x="1511.0971076923076" y="579.7969230769231" type="line" smooth="yes"/>
      <point x="1511.0971076923076" y="275.92175248646606"/>
      <point x="1129.3225846153848" y="-23.38461538461538"/>
      <point x="805.7208615384615" y="-23.38461538461538" type="qcurve" smooth="yes"/>
      <point x="473.65144615384617" y="-23.38461538461538"/>
      <point x="81.82153846153845" y="274.0602140249276"/>
    </contour>
  </outline>
</glyph>
<glyph name="V" format="2">
  <advance width="1586"/>
  <unicode hex="0056"/>
  <outline>
    <contour>
      <point x="-42.061538461538454" y="1456.0" type="line"/>
      <point x="464.03495384615394" y="1456.0" type="line"/>
      <point x="759.6552615384618" y="676.8123076923079" type="line" smooth="yes"/>
      <point x="770.6952615384616" y="650.2246153846155"/>
      <point x="793.8152615384616" y="596.5538461538463"/>
      <point x="805.0460307692309" y="567.1015384615386" type="qcurve"/>
      <point x="808.5168000000001" y="567.1015384615386" type="line"/>
      <point x="819.5106461538462" y="596.7076923076924"/>
      <point x="842.7321846153848" y="651.3630769230771"/>
      <point x="853.2121846153847" y="676.8123076923079" type="qcurve" smooth="yes"/>
      <point x="1143.3628307692309" y="1456.0" type="line"/>
      <point x="1628.1869538461538" y="1456.0" type="line"/>
      <point x="1070.0269538461537" y="-8.747692307692308" type="line"/>
      <point x="515.0830769230769" y="-8.747692307692308" type="line"/>
    </contour>
  </outline>
</glyph>
<glyph name="W" format="2">
  <advance width="2385"/>
  <unicode hex="0057"/>
  <outline>
    <contour>
      <point x="421.97439999999995" y="-2.489230769230768" type="line"/>
      <point x="-8.676923076923087" y="1456.0" type="line"/>
      <point x="469.8294153846155" y="1456.0" type="line"/>
      <point x="708.6509538461539" y="645.9784615384616" type="line" smooth="yes"/>
      <point x="713.441723076923" y="629.3538461538461"/>
      <point x="727.2848000000001" y="595.1723076923078"/>
      <point x="729.9432615384617" y="574.8461538461538" type="qcurve"/>
      <point x="733.3617230769231" y="574.8461538461538" type="line"/>
      <point x="736.1894153846156" y="594.1876923076924"/>
      <point x="750.3217230769233" y="629.3538461538461"/>
      <point x="754.5863384615384" y="645.9784615384616" type="qcurve" smooth="yes"/>
      <point x="988.4899692307691" y="1456.0" type="line"/>
      <point x="1429.0688000000002" y="1456.0" type="line"/>
      <point x="1683.5468307692308" y="645.8953846153846" type="line" smooth="yes"/>
      <point x="1688.319138461539" y="631.003076923077"/>
      <point x="1698.466830769231" y="594.8861538461538"/>
      <point x="1701.6852923076917" y="574.8646153846155" type="qcurve"/>
      <point x="1705.103753846154" y="574.8646153846155" type="line"/>
      <point x="1707.6268307692312" y="594.0553846153845"/>
      <point x="1716.9929846153846" y="629.3046153846155"/>
      <point x="1721.783753846154" y="645.8953846153846" type="qcurve" smooth="yes"/>
      <point x="1947.6760615384617" y="1456.0" type="line"/>
      <point x="2392.7673846153843" y="1456.0" type="line"/>
      <point x="1962.1160615384617" y="-2.489230769230768" type="line"/>
      <point x="1473.5976615384614" y="-2.489230769230768" type="line"/>
      <point x="1219.7852307692308" y="803.5169230769229" type="line" smooth="yes"/>
      <point x="1214.723692307692" y="818.8184615384614"/>
      <point x="1198.4406153846155" y="877.7753846153848"/>
      <point x="1196.052923076923" y="896.827692307692" type="qcurve"/>
      <point x="1192.025230769231" y="896.827692307692" type="line"/>
      <point x="1189.6375384615385" y="877.7753846153848"/>
      <point x="1172.5236923076925" y="819.3784615384616"/>
      <point x="1168.2929230769232" y="803.5169230769229" type="qcurve" smooth="yes"/>
      <point x="923.6712615384614" y="-2.489230769230768" type="line"/>
    </contour>
  </outline>
</glyph>
<glyph name="X" format="2">
  <advance width="1556"/>
  <unicode hex="0058"/>
  <outline>
    <contour>
      <point x="-21.384615384615383" y="0.0" type="line"/>
      <point x="594.483076923077" y="897.0338461538461" type="line"/>
      <point x="705.2276923076922" y="897.88" type="line"/>
      <point x="1086.9015384615384" y="1456.0" type="line"/>
      <point x="1553.1138461538462" y="1456.0" type="line"/>
      <point x="966.1415384615384" y="588.3569230769231" type="line"/>
      <point x="854.4646153846154" y="587.4092307692308" type="line"/>
      <point x="444.5046153846154" y="0.0" type="line"/>
    </contour>
    <contour>
      <point x="5.7907692307692225" y="1456.0" type="line"/>
      <point x="564.9353846153846" y="1456.0" type="line"/>
      <point x="944.6861538461538" y="901.0615384615384" type="line"/>
      <point x="949.7446153846153" y="900.2153846153846" type="line"/>
      <point x="1565.5507692307694" y="0.0" type="line"/>
      <point x="1005.6246153846155" y="0.0" type="line"/>
      <point x="587.6584615384614" y="604.6461538461538" type="line"/>
      <point x="582.9569230769231" y="605.6953846153847" type="line"/>
    </contour>
  </outline>
</glyph>
<glyph name="Y" format="2">
  <advance width="1565"/>
  <unicode hex="0059"/>
  <anchor x="721.060923076923" y="1432.0" name="top"/>
  <outline>
    <contour>
      <point x="532.1623384615384" y="0.0" type="line"/>
      <point x="532.1623384615384" y="534.9323076923076" type="line"/>
      <point x="-37.907692307692315" y="1456.0" type="line"/>
      <point x="502.7527384615385" y="1456.0" type="line"/>
      <point x="771.228923076923" y="1044.4123076923076" type="line" smooth="yes"/>
      <point x="783.1827692307694" y="1025.7569230769232"/>
      <point x="802.6227692307693" y="993.8030769230771"/>
      <point x="811.6658461538462" y="975.1323076923076" type="qcurve"/>
      <point x="815.1519999999999" y="975.1323076923076" type="line"/>
      <point x="825.1089230769231" y="993.769230769231"/>
      <point x="843.8012307692309" y="1025.7569230769232"/>
      <point x="854.9766153846153" y="1044.4123076923076" type="qcurve" smooth="yes"/>
      <point x="1118.7462153846152" y="1456.0" type="line"/>
      <point x="1601.937846153846" y="1456.0" type="line"/>
      <point x="1031.766276923077" y="534.9323076923077" type="line"/>
      <point x="1031.766276923077" y="0.0" type="line"/>
    </contour>
  </outline>
</glyph>
<glyph name="Z" format="2">
  <advance width="1467"/>
  <unicode hex="005A"/>
  <outline>
    <contour>
      <point x="21.00307692307692" y="0.0" type="line"/>
      <point x="21.00307692307692" y="269.2676923076923" type="line"/>
      <point x="745.5803076923077" y="1075.9076923076923" type="line"/>
      <point x="43.36307692307692" y="1075.9076923076923" type="line"/>
      <point x="43.36307692307692" y="1456.0" type="line"/>
      <point x="1402.5890461538463" y="1456.0" type="line"/>
      <point x="1402.5890461538463" y="1172.8246153846153" type="line"/>
      <point x="684.9656615384615" y="366.1846153846154" type="line"/>
      <point x="1445.9859692307693" y="366.1846153846154" type="line"/>
      <point x="1445.9859692307693" y="0.0" type="line"/>
    </contour>
  </outline>
</glyph>
<glyph name="bracketleft" format="2">
  <advance width="777"/>
  <unicode hex="005B"/>
  <outline>
    <contour>
      <point x="109.8769230769231" y="-310.0" type="line"/>
      <point x="109.8769230769231" y="1456.0" type="line"/>
      <point x="830.9655384615385" y="1456.0" type="line"/>
      <point x="830.9655384615385" y="1126.670769230769" type="line"/>
      <point x="549.6024615384615" y="1126.670769230769" type="line"/>
      <point x="549.6024615384615" y="19.329230769230772" type="line"/>
      <point x="830.9655384615385" y="19.329230769230772" type="line"/>
      <point x="830.9655384615385" y="-310.0" type="line"/>
    </contour>
  </outline>
</glyph>
<glyph name="backslash" format="2">
  <advance width="992"/>
  <unicode hex="005C"/>
  <outline>
    <contour>
      <point x="-34.89230769230767" y="1456.0" type="line"/>
      <point x="378.9076923076924" y="1456.0" type="line"/>
      <point x="1035.3876923076925" y="-125.0" type="line"/>
      <point x="621.6738461538461" y="-125.0" type="line"/>
    </contour>
  </outline>
</glyph>
<glyph name="bracketright" format="2">
  <advance width="777"/>
  <unicode hex="005D"/>
  <outline>
    <contour>
      <point x="667.2332307692309" y="-310.0" type="line"/>
      <point x="-54.550769230769234" y="-310.0" type="line"/>
      <point x="-54.550769230769234" y="19.329230769230772" type="line"/>
      <point x="226.6769230769231" y="19.329230769230772" type="line"/>
      <point x="226.6769230769231" y="1126.670769230769" type="line"/>
      <point x="-54.550769230769234" y="1126.670769230769" type="line"/>
      <point x="-54.550769230769234" y="1456.0" type="line"/>
      <point x="667.2332307692309" y="1456.0" type="line"/>
    </contour>
  </outline>
</glyph>
<glyph name="asciicircum" format="2">
  <advance width="1347"/>
  <unicode hex="005E"/>
  <outline>
    <contour>
      <point x="11.092307692307692" y="720.0" type="line"/>
      <point x="487.5353846153846" y="1456.0" type="line"/>
      <point x="859.3661538461538" y="1456.0" type="line"/>
      <point x="1335.7753846153844" y="720.0" type="line"/>
      <point x="937.3292307692309" y="720.0" type="line"/>
      <point x="673.0861538461537" y="1108.049230769231" type="line"/>
      <point x="409.5384615384616" y="720.0" type="line"/>
    </contour>
  </outline>
</glyph>
<glyph name="underscore" format="2">
  <advance width="1012"/>
  <unicode hex="005F"/>
  <outline>
    <contour>
      <point x="0.0" y="-290.41230769230776" type="line"/>
      <point x="0.0" y="36.935384615384606" type="line"/>
      <point x="1012.3569230769232" y="36.935384615384606" type="line"/>
      <point x="1012.3569230769232" y="-290.41230769230776" type="line"/>
    </contour>
  </outline>
</glyph>
<glyph name="grave" format="2">
  <advance width="1026"/>
  <unicode hex="0060"/>
  <anchor x="489.62153846153853" y="951.636923076923" name="_top"/>
  <outline>
    <contour>
      <point x="423.596923076923" y="1057.3076923076926" type="line"/>
      <point x="91.34153846153842" y="1405.1138461538465" type="line"/>
      <point x="463.80923076923085" y="1532.9046153846152" type="line"/>
      <point x="741.6861538461537" y="1165.5292307692307" type="line"/>
    </contour>
  </outline>
</glyph>
<glyph name="a" format="2">
  <advance width="1453"/>
  <unicode hex="0061"/>
  <anchor x="656.870707692308" y="954.1572923076922" name="top"/>
  <outline>
    <contour>
      <point x="25.892307692307693" y="282.1403076923076" type="qcurve" smooth="yes"/>
      <point x="25.892307692307693" y="428.51921206030147"/>
      <point x="306.06436923076916" y="597.3606153846154"/>
      <point x="543.094276923077" y="596.8867692307691" type="qcurve" smooth="yes"/>
      <point x="883.1435076923078" y="596.0406153846153" type="line"/>
      <point x="883.1435076923078" y="636.837292307692" type="line" smooth="yes"/>
      <point x="883.1435076923078" y="682.0865230769228"/>
      <point x="808.9032592451028" y="735.9049846153846"/>
      <point x="715.4912" y="735.9049846153846" type="qcurve" smooth="yes"/>
      <point x="625.5162629370631" y="735.9049846153846"/>
      <point x="545.294276923077" y="688.9027213675214"/>
      <point x="545.294276923077" y="652.3056000000001" type="qcurve" smooth="yes"/>
      <point x="545.294276923077" y="637.0132923076923" type="line"/>
      <point x="112.89489230769232" y="639.0994461538462" type="line"/>
      <point x="112.89489230769232" y="651.3548307692307" type="line" smooth="yes"/>
      <point x="112.89489230769232" y="801.4820244575936"/>
      <point x="454.8562461538461" y="984.1203692307691"/>
      <point x="753.0696615384617" y="984.1203692307691" type="qcurve" smooth="yes"/>
      <point x="1064.5240615384616" y="984.1203692307691"/>
      <point x="1361.019323076923" y="803.1880615384615"/>
      <point x="1361.019323076923" y="613.2188307692307" type="qcurve" smooth="yes"/>
      <point x="1361.019323076923" y="199.66769230769228" type="line" smooth="yes"/>
      <point x="1361.019323076923" y="145.09846153846152"/>
      <point x="1383.8439384615388" y="49.19692307692308"/>
      <point x="1406.8900923076924" y="13.21846153846154" type="qcurve"/>
      <point x="1406.8900923076924" y="0.0" type="line"/>
      <point x="932.3681230769231" y="0.0" type="line"/>
      <point x="914.8008771174419" y="24.190593741193574"/>
      <point x="894.5134118575482" y="84.06609830961835"/>
      <point x="891.3835076923076" y="121.80430769230767" type="qcurve"/>
      <point x="846.9462101319132" y="67.52321458425052"/>
      <point x="619.6288994959198" y="-14.895384615384618"/>
      <point x="446.5478153846154" y="-14.895384615384618" type="qcurve" smooth="yes"/>
      <point x="255.27787847949713" y="-14.895384615384618"/>
      <point x="25.892307692307693" y="137.34109090909092"/>
    </contour>
    <contour>
      <point x="495.81427692307705" y="317.2079999999999" type="qcurve" smooth="yes"/>
      <point x="495.81427692307705" y="273.4115576923076"/>
      <point x="575.2874563677893" y="226.0646153846154"/>
      <point x="657.7459692307693" y="226.0646153846154" type="qcurve" smooth="yes"/>
      <point x="744.1917679547373" y="226.0646153846154"/>
      <point x="883.1435076923078" y="301.60858162934113"/>
      <point x="883.1435076923078" y="351.74584615384606" type="qcurve"/>
      <point x="883.1435076923078" y="413.3144615384615" type="line"/>
      <point x="696.8358153846153" y="413.8221538461538" type="line" smooth="yes"/>
      <point x="595.5500131868134" y="413.99138461538456"/>
      <point x="495.81427692307705" y="362.9589814167974"/>
    </contour>
  </outline>
</glyph>
<glyph name="b" format="2">
  <advance width="1481"/>
  <unicode hex="0062"/>
  <outline>
    <contour>
      <point x="68.43076923076924" y="0.0" type="line"/>
      <point x="68.43076923076924" y="1479.1200000000001" type="line"/>
      <point x="542.5435076923077" y="1479.1200000000001" type="line"/>
      <point x="542.5435076923077" y="827.3265230769227" type="line"/>
      <point x="600.3320134259598" y="895.2847245779883"/>
      <point x="790.7919120879121" y="982.8034461538459"/>
      <point x="930.0185846153846" y="982.8034461538459" type="qcurve" smooth="yes"/>
      <point x="1156.0923360946747" y="982.8034461538459"/>
      <point x="1443.0591999999992" y="710.6676016194333"/>
      <point x="1443.0591999999992" y="498.3924923076922" type="qcurve" smooth="yes"/>
      <point x="1443.0591999999992" y="469.77710769230765" type="line" smooth="yes"/>
      <point x="1443.0591999999992" y="255.29456023222056"/>
      <point x="1147.9538745562131" y="-21.692307692307693"/>
      <point x="923.572430769231" y="-21.692307692307693" type="qcurve" smooth="yes"/>
      <point x="785.5364324324323" y="-21.692307692307693"/>
      <point x="591.6177167378141" y="51.69540402284025"/>
      <point x="539.2881230769231" y="110.47999999999999" type="qcurve"/>
      <point x="539.4788923076924" y="110.47999999999999" type="line"/>
      <point x="536.5865846153847" y="0.0" type="line"/>
    </contour>
    <contour>
      <point x="543.2204307692308" y="388.94153846153847" type="line"/>
      <point x="567.0965654791712" y="349.99309491336794"/>
      <point x="672.8571076923077" y="288.46461538461534"/>
      <point x="752.3711999999999" y="288.46461538461534" type="qcurve" smooth="yes"/>
      <point x="866.3717008944546" y="288.46461538461534"/>
      <point x="970.4696615384617" y="391.26946748066746"/>
      <point x="970.4696615384617" y="472.9309538461539" type="qcurve" smooth="yes"/>
      <point x="970.4696615384617" y="485.18018461538463" type="line" smooth="yes"/>
      <point x="970.4696615384617" y="565.5872284023668"/>
      <point x="866.3717008944546" y="665.6926769230769"/>
      <point x="752.1312000000001" y="665.6926769230769" type="qcurve" smooth="yes"/>
      <point x="675.2263384615385" y="665.6926769230769"/>
      <point x="567.4011808637866" y="604.9088127789395"/>
      <point x="543.2204307692308" y="566.0957538461539" type="qcurve"/>
    </contour>
  </outline>
</glyph>
<glyph name="c" format="2">
  <advance width="1353"/>
  <unicode hex="0063"/>
  <anchor x="642.8753230769231" y="0" name="bottom"/>
  <outline>
    <contour>
      <point x="36.94153846153846" y="466.4324923076923" type="qcurve" smooth="yes"/>
      <point x="36.94153846153846" y="496.26941538461523" type="line" smooth="yes"/>
      <point x="36.94153846153846" y="723.0263529080676"/>
      <point x="402.83876923076923" y="991.0742153846152"/>
      <point x="720.7649230769231" y="991.0742153846152" type="qcurve" smooth="yes"/>
      <point x="1019.6530461538462" y="991.0742153846152"/>
      <point x="1328.1667692307694" y="753.58863335321"/>
      <point x="1338.5606153846156" y="573.5191384615384" type="qcurve" smooth="yes"/>
      <point x="1340.1206153846156" y="550.983753846154" type="line"/>
      <point x="929.8910769230769" y="550.983753846154" type="line"/>
      <point x="929.5526153846154" y="559.7991384615384" type="line" smooth="yes"/>
      <point x="928.3003076923077" y="605.4806831661093"/>
      <point x="840.0875460277429" y="664.9388307692305"/>
      <point x="736.9279999999999" y="664.9388307692305" type="qcurve" smooth="yes"/>
      <point x="624.4597316473482" y="664.9388307692305"/>
      <point x="514.7372307692307" y="579.2512232216809"/>
      <point x="514.7372307692307" y="507.5740307692309" type="qcurve" smooth="yes"/>
      <point x="514.7372307692307" y="453.81095384615395" type="line" smooth="yes"/>
      <point x="514.7372307692307" y="375.9333148295003"/>
      <point x="622.4105008781172" y="287.67692307692306"/>
      <point x="736.5218461538464" y="287.67692307692306" type="qcurve" smooth="yes"/>
      <point x="839.0906229508196" y="287.67692307692306"/>
      <point x="930.1803076923076" y="346.01507068004463"/>
      <point x="930.9249230769228" y="386.1827692307692" type="qcurve" smooth="yes"/>
      <point x="931.2295384615383" y="397.2535384615384" type="line"/>
      <point x="1340.1206153846158" y="397.2535384615384" type="line"/>
      <point x="1339.2560000000003" y="373.3273846153847" type="line" smooth="yes"/>
      <point x="1333.0344615384615" y="199.4301974160207"/>
      <point x="1026.213046153846" y="-29.098461538461535"/>
      <point x="724.2418461538462" y="-29.098461538461535" type="qcurve" smooth="yes"/>
      <point x="405.7926153846153" y="-29.098461538461535"/>
      <point x="36.94153846153846" y="238.93125424501414"/>
    </contour>
  </outline>
</glyph>
<glyph name="d" format="2">
  <advance width="1481"/>
  <unicode hex="0064"/>
  <outline>
    <contour>
      <point x="36.94153846153846" y="464.3463384615385" type="qcurve" smooth="yes"/>
      <point x="36.94153846153846" y="493.80787692307695" type="line" smooth="yes"/>
      <point x="36.94153846153846" y="704.8983708502024"/>
      <point x="312.32123076923074" y="975.8495999999998"/>
      <point x="544.7267692307694" y="975.680369230769" type="qcurve" smooth="yes"/>
      <point x="691.4936615384615" y="975.8495999999998"/>
      <point x="893.6377846153846" y="892.1142153846152"/>
      <point x="948.7526153846154" y="828.9419076923078" type="qcurve"/>
      <point x="948.7526153846154" y="1479.1200000000001" type="line"/>
      <point x="1413.2653538461539" y="1479.1200000000001" type="line"/>
      <point x="1413.2653538461539" y="0.0" type="line"/>
      <point x="954.9803076923075" y="0.0" type="line"/>
      <point x="951.2572307692308" y="142.9446153846154" type="line"/>
      <point x="950.4479999999999" y="142.9446153846154" type="line"/>
      <point x="896.7305846153845" y="75.00615384615382"/>
      <point x="689.5798153846152" y="-21.523076923076925"/>
      <point x="544.219076923077" y="-21.523076923076925" type="qcurve" smooth="yes"/>
      <point x="309.85969230769217" y="-21.523076923076925"/>
      <point x="36.94153846153846" y="249.86379100145137"/>
    </contour>
    <contour>
      <point x="508.83569230769217" y="470.94326153846157" type="line" smooth="yes"/>
      <point x="508.83569230769217" y="388.4356213268213"/>
      <point x="615.044923076923" y="287.7692307692308"/>
      <point x="727.0910769230767" y="287.7692307692308" type="qcurve" smooth="yes"/>
      <point x="805.8295384615387" y="287.7692307692308"/>
      <point x="915.7587692307693" y="350.25538461538457"/>
      <point x="937.4756923076922" y="388.94153846153847" type="qcurve"/>
      <point x="937.4756923076922" y="564.7419076923077" type="line"/>
      <point x="914.2018461538458" y="604.1049846153846"/>
      <point x="804.9833846153848" y="666.3880615384613"/>
      <point x="727.598769230769" y="666.3880615384613" type="qcurve" smooth="yes"/>
      <point x="613.9618461538461" y="666.3880615384613"/>
      <point x="508.83569230769217" y="562.4672284023667"/>
      <point x="508.83569230769217" y="483.75249230769225" type="qcurve" smooth="yes"/>
    </contour>
  </outline>
</glyph>
<glyph name="e" format="2">
  <advance width="1424"/>
  <unicode hex="0065"/>
  <anchor x="653.4625846153847" y="954.4040000000002" name="top"/>
  <outline>
    <contour>
      <point x="36.98076923076923" y="467.8606923076923" type="qcurve" smooth="yes"/>
      <point x="36.98076923076923" y="496.306846153846" type="line" smooth="yes"/>
      <point x="36.98076923076923" y="722.5510859521577"/>
      <point x="415.51976923076916" y="989.5675384615383"/>
      <point x="736.8230769230769" y="989.5675384615383" type="qcurve" smooth="yes"/>
      <point x="1050.6529230769231" y="989.5675384615383"/>
      <point x="1391.0615384615382" y="726.0571364743853"/>
      <point x="1391.0615384615382" y="508.1453076923078" type="qcurve" smooth="yes"/>
      <point x="1391.0615384615382" y="421.8722307692307" type="line"/>
      <point x="311.51346153846157" y="421.8722307692307" type="line"/>
      <point x="311.51346153846157" y="561.0914615384615" type="line"/>
      <point x="934.5557692307692" y="561.0914615384615" type="line"/>
      <point x="933.725" y="543.5183846153847" type="line"/>
      <point x="934.5557692307692" y="609.8375511948367"/>
      <point x="849.7241700404859" y="678.5367692307694"/>
      <point x="726.9730769230771" y="678.5367692307694" type="qcurve" smooth="yes"/>
      <point x="623.0348796937661" y="678.5367692307694"/>
      <point x="510.6826923076924" y="588.7831628001627"/>
      <point x="510.6826923076924" y="506.1568461538462" type="qcurve" smooth="yes"/>
      <point x="510.6826923076924" y="464.27607692307686" type="line" smooth="yes"/>
      <point x="510.6826923076924" y="376.44258530197425"/>
      <point x="630.6173572136018" y="283.0999999999999"/>
      <point x="747.5076923076923" y="283.0999999999999" type="qcurve" smooth="yes"/>
      <point x="838.9104169662114" y="283.0999999999999"/>
      <point x="951.5235384615382" y="333.7907692307693"/>
      <point x="980.2311538461539" y="369.6653846153847" type="qcurve"/>
      <point x="1380.3484615384616" y="284.60384615384623" type="line"/>
      <point x="1318.9392307692308" y="131.73076923076923"/>
      <point x="1017.4077692307693" y="-29.388461538461534"/>
      <point x="749.9807692307692" y="-29.388461538461534" type="qcurve" smooth="yes"/>
      <point x="410.8547692307693" y="-29.388461538461534"/>
      <point x="36.98076923076923" y="236.75703390313387"/>
    </contour>
  </outline>
</glyph>
<glyph name="f" format="2">
  <advance width="904"/>
  <unicode hex="0066"/>
  <outline>
    <contour>
      <point x="198.18461538461537" y="0.0" type="line"/>
      <point x="198.18461538461537" y="1057.4523076923078" type="line" smooth="yes"/>
      <point x="198.18461538461537" y="1273.7846153846153"/>
      <point x="509.9486008220787" y="1499.1200000000001"/>
      <point x="780.8881230769231" y="1499.1200000000001" type="qcurve" smooth="yes"/>
      <point x="834.6327384615383" y="1499.1200000000001"/>
      <point x="926.2635076923079" y="1488.9999999999998"/>
      <point x="975.8050461538464" y="1480.3384615384616" type="qcurve"/>
      <point x="963.294276923077" y="1148.9630769230773" type="line"/>
      <point x="940.3558153846153" y="1151.5723076923077"/>
      <point x="891.5865846153848" y="1157.0123076923076"/>
      <point x="856.3558153846152" y="1157.0123076923076" type="qcurve" smooth="yes"/>
      <point x="763.2782724958496" y="1157.0123076923076"/>
      <point x="661.5435076923078" y="1073.7938461538463"/>
      <point x="661.5435076923078" y="984.4369230769229" type="qcurve" smooth="yes"/>
      <point x="661.5435076923078" y="879.9603692307692" type="line"/>
      <point x="668.4973538461538" y="867.3726769230769" type="line"/>
      <point x="668.4973538461538" y="0.0" type="line"/>
    </contour>
    <contour>
      <point x="9.449230769230766" y="627.3880615384613" type="line"/>
      <point x="9.449230769230766" y="954.1572923076922" type="line"/>
      <point x="278.12406153846155" y="954.1572923076922" type="line"/>
      <point x="311.38560000000007" y="954.1572923076922" type="line"/>
      <point x="906.0296615384615" y="954.1572923076922" type="line"/>
      <point x="906.0296615384615" y="627.3880615384613" type="line"/>
    </contour>
  </outline>
</glyph>
<glyph name="g" format="2">
  <advance width="1481"/>
  <unicode hex="0067"/>
  <outline>
    <contour>
      <point x="97.35507692307694" y="-345.9446153846153" type="qcurve"/>
      <point x="157.0304" y="-33.29538461538463" type="line"/>
      <point x="215.45278926918752" y="-71.08303796147165"/>
      <point x="486.1902222222222" y="-143.82153846153844"/>
      <point x="613.1470769230768" y="-143.82153846153844" type="qcurve" smooth="yes"/>
      <point x="740.6921595441594" y="-143.82153846153844"/>
      <point x="943.734153846154" y="-63.21538461538462"/>
      <point x="943.734153846154" y="39.87692307692306" type="qcurve" smooth="yes"/>
      <point x="943.734153846154" y="136.4553846153846" type="line"/>
      <point x="885.5362461538463" y="69.24615384615383"/>
      <point x="704.8936615384615" y="-17.212307692307693"/>
      <point x="541.4006153846155" y="-17.212307692307693" type="qcurve" smooth="yes"/>
      <point x="316.4381538461538" y="-17.212307692307693"/>
      <point x="36.94153846153846" y="249.69456023222062"/>
      <point x="36.94153846153846" y="464.1771076923077" type="qcurve" smooth="yes"/>
      <point x="36.94153846153846" y="492.7924923076923" type="line" smooth="yes"/>
      <point x="36.94153846153846" y="705.236832388664"/>
      <point x="301.6843076923077" y="975.8495999999998"/>
      <point x="534.5667692307692" y="975.8495999999998" type="qcurve" smooth="yes"/>
      <point x="673.5121230769231" y="975.8495999999998"/>
      <point x="885.0044307692307" y="881.8742153846154"/>
      <point x="935.9956923076923" y="815.172676923077" type="qcurve"/>
      <point x="938.7218461538461" y="815.172676923077" type="line"/>
      <point x="942.3095384615384" y="954.1572923076922" type="line"/>
      <point x="1412.4007384615386" y="954.1572923076922" type="line"/>
      <point x="1412.4007384615386" y="138.73846153846154" type="line" smooth="yes"/>
      <point x="1412.4007384615386" y="-146.54153846153844"/>
      <point x="1033.9060923076925" y="-448.8923076923076"/>
      <point x="715.4356923076925" y="-448.8923076923076" type="qcurve" smooth="yes"/>
      <point x="520.052923076923" y="-448.8923076923076"/>
      <point x="201.74350769230767" y="-386.1784615384615"/>
    </contour>
    <contour>
      <point x="508.83569230769217" y="470.94326153846157" type="line" smooth="yes"/>
      <point x="508.83569230769217" y="388.3002367114367"/>
      <point x="614.6387692307692" y="286.68615384615384"/>
      <point x="727.0910769230769" y="286.68615384615384" type="qcurve" smooth="yes"/>
      <point x="807.860307692308" y="286.68615384615384"/>
      <point x="915.8941538461537" y="349.3076923076922"/>
      <point x="937.4756923076922" y="387.8584615384616" type="qcurve"/>
      <point x="937.4756923076922" y="566.0957538461539" type="line"/>
      <point x="914.3372307692308" y="605.4588307692306"/>
      <point x="804.9833846153849" y="666.3880615384613"/>
      <point x="727.598769230769" y="666.3880615384613" type="qcurve" smooth="yes"/>
      <point x="613.9618461538461" y="666.3880615384613"/>
      <point x="508.83569230769217" y="562.4672284023667"/>
      <point x="508.83569230769217" y="483.75249230769225" type="qcurve" smooth="yes"/>
    </contour>
  </outline>
</glyph>
<glyph name="h" format="2">
  <advance width="1442"/>
  <unicode hex="0068"/>
  <outline>
    <contour>
      <point x="68.43076923076924" y="0.0" type="line"/>
      <point x="68.43076923076924" y="1477.3907692307691" type="line"/>
      <point x="544.0512" y="1477.3907692307691" type="line"/>
      <point x="544.6111999999999" y="797.4495999999998" type="line"/>
      <point x="596.402953846154" y="877.8772923076925"/>
      <point x="802.8834461538462" y="982.615753846154"/>
      <point x="959.0247384615384" y="982.615753846154" type="qcurve" smooth="yes"/>
      <point x="1150.5118769230771" y="982.615753846154"/>
      <point x="1382.4624000000001" y="784.8311384615383"/>
      <point x="1382.4624000000001" y="570.0096" type="qcurve" smooth="yes"/>
      <point x="1382.4624000000001" y="0.0" type="line"/>
      <point x="904.8911999999999" y="0.0" type="line"/>
      <point x="904.8911999999999" y="486.1572923076923" type="line" smooth="yes"/>
      <point x="904.8911999999999" y="566.9019076923075"/>
      <point x="823.8942769230771" y="642.3972923076922"/>
      <point x="748.6358153846154" y="642.3972923076922" type="qcurve" smooth="yes"/>
      <point x="677.4327384615383" y="642.3972923076922"/>
      <point x="575.3896615384614" y="575.8834461538461"/>
      <point x="545.3065846153846" y="525.7080615384617" type="qcurve"/>
      <point x="545.3065846153846" y="0.0" type="line"/>
    </contour>
  </outline>
</glyph>
<glyph name="i" format="2">
  <advance width="628"/>
  <unicode hex="0069"/>
  <outline>
    <contour>
      <point x="71.07076923076924" y="0.0" type="line"/>
      <point x="71.07076923076924" y="954.1572923076922" type="line"/>
      <point x="556.8173538461539" y="954.1572923076922" type="line"/>
      <point x="556.8173538461539" y="0.0" type="line"/>
    </contour>
    <contour>
      <point x="57.19076923076922" y="1256.0615384615382" type="qcurve" smooth="yes"/>
      <point x="57.19076923076922" y="1351.1230769230767"/>
      <point x="191.14020790020788" y="1481.5876923076924"/>
      <point x="315.1507692307692" y="1481.5876923076924" type="qcurve" smooth="yes"/>
      <point x="438.7367151767152" y="1481.5876923076924"/>
      <point x="569.8707692307693" y="1353.0030769230768"/>
      <point x="569.8707692307693" y="1255.9261538461537" type="qcurve" smooth="yes"/>
      <point x="569.8707692307693" y="1160.8984615384616"/>
      <point x="435.2259459459459" y="1027.449230769231"/>
      <point x="312.6061538461538" y="1027.449230769231" type="qcurve" smooth="yes"/>
      <point x="189.1555925155925" y="1027.449230769231"/>
      <point x="57.19076923076922" y="1160.8984615384616"/>
    </contour>
  </outline>
</glyph>
<glyph name="j" format="2">
  <advance width="658"/>
  <unicode hex="006A"/>
  <outline>
    <contour>
      <point x="-234.99692307692308" y="-413.88923076923083" type="qcurve"/>
      <point x="-244.0369230769231" y="-79.68615384615383" type="line"/>
      <point x="-218.89230769230767" y="-85.12307692307694"/>
      <point x="-134.17846153846153" y="-101.30769230769226"/>
      <point x="-66.21230769230768" y="-101.30769230769226" type="qcurve" smooth="yes"/>
      <point x="23.72615384615385" y="-101.30769230769226"/>
      <point x="103.87384615384612" y="-28.56615384615383"/>
      <point x="103.87384615384612" y="85.13538461538464" type="qcurve" smooth="yes"/>
      <point x="103.87384615384612" y="954.1572923076922" type="line"/>
      <point x="586.1435076923077" y="954.1572923076922" type="line"/>
      <point x="586.1435076923077" y="21.360000000000014" type="line" smooth="yes"/>
      <point x="586.1435076923077" y="-219.32923076923075"/>
      <point x="304.1627218158891" y="-438.7815384615385"/>
      <point x="30.037538461538468" y="-438.7815384615385" type="qcurve" smooth="yes"/>
      <point x="-44.980097560975594" y="-438.7815384615385"/>
      <point x="-191.62050689955717" y="-422.0049910452221"/>
    </contour>
    <contour>
      <point x="89.44923076923077" y="1255.9261538461537" type="qcurve" smooth="yes"/>
      <point x="89.44923076923077" y="1351.0184615384617"/>
      <point x="223.39866943866946" y="1481.5876923076924"/>
      <point x="347.5446153846154" y="1481.5876923076924" type="qcurve" smooth="yes"/>
      <point x="470.9951767151768" y="1481.5876923076924"/>
      <point x="602.1292307692307" y="1353.0030769230768"/>
      <point x="602.1292307692307" y="1255.9261538461537" type="qcurve" smooth="yes"/>
      <point x="602.1292307692307" y="1160.8984615384616"/>
      <point x="467.4844074844075" y="1027.449230769231"/>
      <point x="344.86461538461543" y="1027.449230769231" type="qcurve" smooth="yes"/>
      <point x="221.41405405405405" y="1027.449230769231"/>
      <point x="89.44923076923077" y="1160.8984615384616"/>
    </contour>
  </outline>
</glyph>
<glyph name="k" format="2">
  <advance width="1508"/>
  <unicode hex="006B"/>
  <outline>
    <contour>
      <point x="68.43076923076924" y="0.0" type="line"/>
      <point x="68.43076923076924" y="1479.1200000000001" type="line"/>
      <point x="544.968123076923" y="1479.1200000000001" type="line"/>
      <point x="544.968123076923" y="666.2921846153847" type="line"/>
      <point x="893.2923076923076" y="954.1907692307692" type="line"/>
      <point x="1464.1230769230765" y="954.1907692307692" type="line"/>
      <point x="544.968123076923" y="180.23864615384613" type="line"/>
      <point x="544.968123076923" y="0.0" type="line"/>
    </contour>
    <contour>
      <point x="965.2184615384615" y="0.0" type="line"/>
      <point x="580.1948923076925" y="422.1196923076923" type="line"/>
      <point x="884.0049846153847" y="718.5432615384614" type="line"/>
      <point x="1539.3004307692306" y="0.0" type="line"/>
    </contour>
  </outline>
</glyph>
<glyph name="l" format="2">
  <advance width="623"/>
  <unicode hex="006C"/>
  <outline>
    <contour>
      <point x="70.59692307692305" y="0.0" type="line"/>
      <point x="70.59692307692305" y="1479.1200000000001" type="line"/>
      <point x="552.0019692307691" y="1479.1200000000001" type="line"/>
      <point x="552.0019692307691" y="0.0" type="line"/>
    </contour>
  </outline>
</glyph>
<glyph name="m" format="2">
  <advance width="2250"/>
  <unicode hex="006D"/>
  <outline>
    <contour>
      <point x="68.43076923076924" y="-0.6953846153846154" type="line"/>
      <point x="68.43076923076924" y="953.4619076923075" type="line"/>
      <point x="535.7404307692309" y="953.4619076923075" type="line"/>
      <point x="538.6327384615385" y="790.4895999999999" type="line"/>
      <point x="540.5281230769232" y="790.4895999999999" type="line"/>
      <point x="606.052676923077" y="882.686523076923"/>
      <point x="815.4465230769232" y="980.5296000000001"/>
      <point x="956.5016615384615" y="980.5296000000001" type="qcurve" smooth="yes"/>
      <point x="1089.6907076923076" y="980.5296000000001"/>
      <point x="1280.0692923076922" y="881.2588307692306"/>
      <point x="1317.614769230769" y="788.1388307692306" type="qcurve"/>
      <point x="1318.6076307692304" y="788.1388307692306" type="line"/>
      <point x="1394.628923076923" y="881.6434461538462"/>
      <point x="1627.2052923076924" y="981.9203692307691"/>
      <point x="1776.5639384615388" y="981.9203692307691" type="qcurve" smooth="yes"/>
      <point x="1964.0923076923077" y="981.9203692307691"/>
      <point x="2191.507446153846" y="789.3080615384616"/>
      <point x="2191.507446153846" y="573.4865230769232" type="qcurve" smooth="yes"/>
      <point x="2191.507446153846" y="-0.6953846153846154" type="line"/>
      <point x="1714.2070153846162" y="-0.6953846153846154" type="line"/>
      <point x="1714.2070153846162" y="486.53267692307685" type="line" smooth="yes"/>
      <point x="1712.4408615384614" y="568.1911384615387"/>
      <point x="1634.2777846153851" y="642.566523076923"/>
      <point x="1556.4624" y="642.566523076923" type="qcurve" smooth="yes"/>
      <point x="1488.6439384615387" y="642.566523076923"/>
      <point x="1396.0931692307693" y="576.4219076923077"/>
      <point x="1368.7547076923076" y="528.7726769230768" type="qcurve"/>
      <point x="1368.7547076923076" y="-0.6953846153846154" type="line"/>
      <point x="889.7927384615384" y="-0.6953846153846154" type="line"/>
      <point x="889.7927384615384" y="485.85575384615385" type="line" smooth="yes"/>
      <point x="888.8573538461538" y="567.3788307692306"/>
      <point x="810.014276923077" y="642.566523076923"/>
      <point x="733.5188923076922" y="642.566523076923" type="qcurve" smooth="yes"/>
      <point x="669.1373538461538" y="642.566523076923"/>
      <point x="572.2542769230771" y="574.9819076923078"/>
      <point x="545.3065846153846" y="526.3849846153847" type="qcurve"/>
      <point x="545.3065846153846" y="-0.6953846153846154" type="line"/>
    </contour>
  </outline>
</glyph>
<glyph name="n" format="2">
  <advance width="1442"/>
  <unicode hex="006E"/>
  <anchor x="661.0278769230771" y="954.1572923076922" name="top"/>
  <outline>
    <contour>
      <point x="68.43076923076924" y="0.0" type="line"/>
      <point x="68.43076923076924" y="954.1572923076922" type="line"/>
      <point x="539.9127384615385" y="954.1572923076922" type="line"/>
      <point x="542.8050461538461" y="799.4988307692306" type="line"/>
      <point x="542.614276923077" y="799.4988307692306" type="line"/>
      <point x="596.5965541186125" y="882.5129420084529"/>
      <point x="802.0262801619434" y="982.6157538461539"/>
      <point x="959.0247384615385" y="982.6157538461539" type="qcurve" smooth="yes"/>
      <point x="1150.502310924873" y="982.6157538461539"/>
      <point x="1382.4624000000003" y="784.8215553728713"/>
      <point x="1382.4624000000003" y="570.0096" type="qcurve" smooth="yes"/>
      <point x="1382.4624000000003" y="0.0" type="line"/>
      <point x="904.7558153846154" y="0.0" type="line"/>
      <point x="904.7558153846154" y="486.1572923076922" type="line" smooth="yes"/>
      <point x="904.7558153846154" y="567.4205328968903"/>
      <point x="823.7361498327758" y="642.3972923076922"/>
      <point x="748.6358153846154" y="642.3972923076922" type="qcurve" smooth="yes"/>
      <point x="678.2807638382235" y="642.3972923076922"/>
      <point x="575.3841298973053" y="575.8702226815035"/>
      <point x="545.3065846153846" y="525.7080615384617" type="qcurve"/>
      <point x="545.3065846153846" y="0.0" type="line"/>
    </contour>
  </outline>
</glyph>
<glyph name="o" format="2">
  <advance width="1489"/>
  <unicode hex="006F"/>
  <anchor x="660.4100923076924" y="954.1572923076922" name="top"/>
  <outline>
    <contour>
      <point x="36.94153846153846" y="466.26326153846156" type="qcurve" smooth="yes"/>
      <point x="36.94153846153846" y="495.4047999999999" type="line" smooth="yes"/>
      <point x="36.94153846153846" y="715.377122138837"/>
      <point x="422.7936" y="991.0742153846152"/>
      <point x="744.2326153846155" y="991.0742153846152" type="qcurve" smooth="yes"/>
      <point x="1066.536246153846" y="991.0742153846152"/>
      <point x="1451.6929230769233" y="715.377122138837"/>
      <point x="1451.6929230769233" y="495.4047999999999" type="qcurve" smooth="yes"/>
      <point x="1451.6929230769233" y="466.26326153846156" type="line" smooth="yes"/>
      <point x="1451.6929230769233" y="244.340485014245"/>
      <point x="1066.4008615384614" y="-29.267692307692304"/>
      <point x="744.2326153846155" y="-29.267692307692304" type="qcurve" smooth="yes"/>
      <point x="422.0643692307693" y="-29.267692307692304"/>
      <point x="36.94153846153846" y="244.340485014245"/>
    </contour>
    <contour>
      <point x="515.2787692307693" y="507.5740307692306" type="qcurve" smooth="yes"/>
      <point x="515.2787692307693" y="454.37095384615384" type="line" smooth="yes"/>
      <point x="515.2787692307693" y="382.2800555114988"/>
      <point x="629.6264615384615" y="288.8953846153846"/>
      <point x="741.5864615384615" y="288.8953846153846" type="qcurve" smooth="yes"/>
      <point x="853.7833846153846" y="288.8953846153846"/>
      <point x="967.7926153846153" y="382.4154401268834"/>
      <point x="967.7926153846153" y="454.54018461538465" type="qcurve" smooth="yes"/>
      <point x="967.7926153846153" y="507.5740307692306" type="line" smooth="yes"/>
      <point x="967.7926153846153" y="577.8706363858363"/>
      <point x="853.7833846153846" y="668.4003692307693"/>
      <point x="741.5864615384615" y="668.4003692307693" type="qcurve" smooth="yes"/>
      <point x="629.6264615384615" y="668.4003692307693"/>
      <point x="515.2787692307693" y="577.7352517704519"/>
    </contour>
  </outline>
</glyph>
<glyph name="p" format="2">
  <advance width="1480"/>
  <unicode hex="0070"/>
  <outline>
    <contour>
      <point x="68.43076923076924" y="-412.20923076923077" type="line"/>
      <point x="68.43076923076924" y="954.1572923076922" type="line"/>
      <point x="533.654276923077" y="954.1572923076922" type="line"/>
      <point x="536.5465846153845" y="838.0834461538461" type="line"/>
      <point x="538.2727384615384" y="838.7788307692307" type="line"/>
      <point x="588.8886153846153" y="897.5603692307693"/>
      <point x="787.0178461538463" y="983.4988307692303"/>
      <point x="928.6278153846155" y="983.4988307692303" type="qcurve" smooth="yes"/>
      <point x="1160.6087384615385" y="983.4988307692303"/>
      <point x="1441.6684307692308" y="727.5445246963562"/>
      <point x="1441.6684307692308" y="495.59249230769217" type="qcurve" smooth="yes"/>
      <point x="1441.6684307692308" y="466.9771076923077" type="line" smooth="yes"/>
      <point x="1441.6684307692308" y="244.82379100145144"/>
      <point x="1150.9102769230767" y="-21.692307692307693"/>
      <point x="922.3508923076923" y="-21.692307692307693" type="qcurve" smooth="yes"/>
      <point x="781.5347692307693" y="-21.692307692307693"/>
      <point x="600.8306461538463" y="48.83384615384615"/>
      <point x="543.3896615384615" y="98.5969230769231" type="qcurve"/>
      <point x="543.0512" y="-412.20923076923077" type="line"/>
    </contour>
    <contour>
      <point x="543.2204307692308" y="388.24615384615373" type="line"/>
      <point x="564.9035076923078" y="349.5938461538462"/>
      <point x="672.3096615384615" y="287.7692307692308"/>
      <point x="751.0788923076923" y="287.7692307692308" type="qcurve" smooth="yes"/>
      <point x="862.9035076923078" y="287.7692307692308"/>
      <point x="969.7742769230769" y="378.9679290191289"/>
      <point x="969.7742769230769" y="453.3494153846154" type="qcurve" smooth="yes"/>
      <point x="969.7742769230769" y="504.5524923076924" type="line" smooth="yes"/>
      <point x="969.7742769230769" y="580.6333822485207"/>
      <point x="862.3435076923078" y="666.3880615384613"/>
      <point x="753.5219692307691" y="666.3880615384613" type="qcurve" smooth="yes"/>
      <point x="673.8481230769231" y="666.3880615384613"/>
      <point x="565.3250461538462" y="606.680369230769"/>
      <point x="543.2204307692308" y="566.7911384615386" type="qcurve"/>
    </contour>
  </outline>
</glyph>
<glyph name="q" format="2">
  <advance width="1481"/>
  <unicode hex="0071"/>
  <outline>
    <contour>
      <point x="36.94153846153846" y="464.3107692307692" type="qcurve" smooth="yes"/>
      <point x="36.94153846153846" y="493.77230769230766" type="line" smooth="yes"/>
      <point x="36.94153846153846" y="704.8923076923076"/>
      <point x="312.31076923076915" y="975.8830769230768"/>
      <point x="544.6953846153845" y="975.713846153846" type="qcurve" smooth="yes"/>
      <point x="701.4369230769231" y="975.8830769230768"/>
      <point x="905.9015384615385" y="885.3846153846155"/>
      <point x="952.8646153846153" y="827.8923076923078" type="qcurve"/>
      <point x="952.4523076923076" y="827.8923076923078" type="line"/>
      <point x="956.1753846153847" y="954.1907692307692" type="line"/>
      <point x="1413.2276923076925" y="954.1907692307692" type="line"/>
      <point x="1413.2276923076925" y="-413.59999999999997" type="line"/>
      <point x="947.4738461538461" y="-413.59999999999997" type="line"/>
      <point x="947.1353846153846" y="141.18461538461537" type="line"/>
      <point x="949.916923076923" y="141.1846153846154" type="line"/>
      <point x="891.5292307692307" y="73.11076923076922"/>
      <point x="690.833846153846" y="-21.523076923076925"/>
      <point x="545.5415384615385" y="-21.523076923076925" type="qcurve" smooth="yes"/>
      <point x="310.66153846153844" y="-21.523076923076925"/>
      <point x="36.94153846153846" y="249.91076923076926"/>
    </contour>
    <contour>
      <point x="508.83569230769217" y="470.94326153846157" type="line" smooth="yes"/>
      <point x="508.83569230769217" y="388.30023671143675"/>
      <point x="614.6387692307692" y="287.7692307692308"/>
      <point x="727.0910769230768" y="287.7692307692308" type="qcurve" smooth="yes"/>
      <point x="807.7249230769235" y="287.7692307692308"/>
      <point x="916.0295384615386" y="350.3907692307692"/>
      <point x="937.6110769230766" y="388.94153846153847" type="qcurve"/>
      <point x="937.6110769230766" y="564.7419076923077" type="line"/>
      <point x="914.4726153846156" y="604.1049846153848"/>
      <point x="804.983384615385" y="666.3880615384613"/>
      <point x="727.5987692307691" y="666.3880615384613" type="qcurve" smooth="yes"/>
      <point x="613.9618461538461" y="666.3880615384613"/>
      <point x="508.83569230769217" y="562.8733822485206"/>
      <point x="508.83569230769217" y="484.1586461538461" type="qcurve" smooth="yes"/>
    </contour>
  </outline>
</glyph>
<glyph name="r" format="2">
  <advance width="1029"/>
  <unicode hex="0072"/>
  <outline>
    <contour>
      <point x="68.43076923076924" y="0.0" type="line"/>
      <point x="68.43076923076924" y="954.1572923076922" type="line"/>
      <point x="549.4788923076924" y="954.1572923076922" type="line"/>
      <point x="552.3712" y="794.0003692307693" type="line"/>
      <point x="552.3496615384616" y="794.0003692307693" type="line"/>
      <point x="604.7542933295888" y="869.1727144236755"/>
      <point x="779.5096615384616" y="973.5019076923074"/>
      <point x="887.3312000000002" y="973.5019076923074" type="qcurve" smooth="yes"/>
      <point x="936.9650461538462" y="973.5019076923074"/>
      <point x="1005.7435076923076" y="961.9634461538459"/>
      <point x="1020.4635076923079" y="956.4403692307691" type="qcurve"/>
      <point x="1020.4635076923079" y="616.9203692307693" type="line"/>
      <point x="995.3035076923078" y="627.3111384615385"/>
      <point x="926.5742769230769" y="637.055753846154"/>
      <point x="880.097353846154" y="637.055753846154" type="qcurve" smooth="yes"/>
      <point x="778.8247249366019" y="637.055753846154"/>
      <point x="604.6462535153754" y="541.0251349765443"/>
      <point x="556.9588923076924" y="464.62190769230773" type="qcurve"/>
      <point x="556.9588923076924" y="0.0" type="line"/>
    </contour>
  </outline>
</glyph>
<glyph name="s" format="2">
  <advance width="1340"/>
  <unicode hex="0073"/>
  <outline>
    <contour>
      <point x="27.75384615384615" y="317.67507692307686" type="line"/>
      <point x="444.75889230769235" y="312.112" type="line"/>
      <point x="444.75889230769235" y="297.76738461538463" type="line" smooth="yes"/>
      <point x="444.75889230769235" y="249.31446153846147"/>
      <point x="564.6948923076923" y="211.8338461538461"/>
      <point x="661.897353846154" y="211.8338461538461" type="qcurve" smooth="yes"/>
      <point x="764.4334321031572" y="211.8338461538461"/>
      <point x="865.0830769230769" y="247.83384615384614"/>
      <point x="865.0830769230769" y="277.06769230769225" type="qcurve" smooth="yes"/>
      <point x="865.0830769230769" y="306.45846153846156"/>
      <point x="785.9323076923077" y="335.7661538461538"/>
      <point x="551.1107692307693" y="362.4615384615385" type="qcurve" smooth="yes"/>
      <point x="268.43692307692305" y="396.1692307692307"/>
      <point x="62.60923076923076" y="542.0449620127858"/>
      <point x="62.60923076923076" y="673.5775999999998" type="qcurve" smooth="yes"/>
      <point x="62.60923076923076" y="811.0278292409577"/>
      <point x="405.1700923076924" y="990.0403692307693"/>
      <point x="678.5035076923078" y="990.0403692307693" type="qcurve" smooth="yes"/>
      <point x="951.179163076923" y="990.0403692307693"/>
      <point x="1283.074707692308" y="795.584923076923"/>
      <point x="1283.074707692308" y="663.1529846153846" type="qcurve" smooth="yes"/>
      <point x="1283.074707692308" y="643.4699076923077" type="line"/>
      <point x="868.0358153846156" y="643.4699076923077" type="line"/>
      <point x="868.0358153846156" y="656.0914461538462" type="line" smooth="yes"/>
      <point x="868.0358153846156" y="695.8156923076922"/>
      <point x="766.9317224963715" y="733.6742153846152"/>
      <point x="664.8204307692308" y="733.6742153846152" type="qcurve" smooth="yes"/>
      <point x="562.2145166833166" y="733.6742153846152"/>
      <point x="479.2788923076923" y="705.8115340659341"/>
      <point x="478.7188923076923" y="677.2822153846153" type="qcurve" smooth="yes"/>
      <point x="478.1588923076923" y="650.5790682860999"/>
      <point x="561.5809040647721" y="624.5002651601704"/>
      <point x="793.4861538461539" y="602.4448" type="qcurve" smooth="yes"/>
      <point x="1072.2090040732535" y="575.4131429329901"/>
      <point x="1312.5393230769234" y="433.8996605868358"/>
      <point x="1312.5393230769234" y="297.9581538461539" type="qcurve" smooth="yes"/>
      <point x="1312.5393230769234" y="156.37223076923078"/>
      <point x="992.1044923076923" y="-29.267692307692304"/>
      <point x="674.5804307692309" y="-29.267692307692304" type="qcurve" smooth="yes"/>
      <point x="353.96504615384623" y="-29.267692307692304"/>
      <point x="34.59076923076923" y="158.2431384615385"/>
      <point x="28.449230769230777" y="300.82892307692316" type="qcurve" smooth="yes"/>
    </contour>
  </outline>
</glyph>
<glyph name="t" format="2">
  <advance width="960"/>
  <unicode hex="0074"/>
  <outline>
    <contour>
      <point x="1.4923076923076923" y="626.7111384615382" type="line"/>
      <point x="1.4923076923076923" y="954.1572923076922" type="line"/>
      <point x="928.4296615384616" y="954.1572923076922" type="line"/>
      <point x="928.4296615384616" y="626.7111384615382" type="line"/>
    </contour>
    <contour>
      <point x="195.72307692307695" y="317.8646153846154" type="qcurve" smooth="yes"/>
      <point x="195.72307692307695" y="895.4957538461539" type="line"/>
      <point x="209.63076923076926" y="911.6403692307692" type="line"/>
      <point x="209.63076923076926" y="1213.2923076923082" type="line"/>
      <point x="662.8635076923076" y="1213.2923076923082" type="line"/>
      <point x="662.8635076923076" y="445.0276923076923" type="line" smooth="yes"/>
      <point x="662.8635076923076" y="358.83384615384614"/>
      <point x="723.7143578947368" y="299.27384615384614"/>
      <point x="790.6296615384615" y="299.27384615384614" type="qcurve" smooth="yes"/>
      <point x="832.4297375118712" y="299.27384615384614"/>
      <point x="893.6450461538461" y="308.1846153846154"/>
      <point x="923.1342769230771" y="315.8769230769231" type="qcurve"/>
      <point x="927.0265846153848" y="12.510769230769233" type="line"/>
      <point x="887.9127384615387" y="1.224615384615386"/>
      <point x="725.7804307692307" y="-22.7076923076923"/>
      <point x="591.7312000000001" y="-22.7076923076923" type="qcurve" smooth="yes"/>
      <point x="401.9182769230768" y="-22.7076923076923"/>
      <point x="195.72307692307695" y="148.6769230769231"/>
    </contour>
  </outline>
</glyph>
<glyph name="u" format="2">
  <advance width="1442"/>
  <unicode hex="0075"/>
  <anchor x="647.2391384615383" y="954.1572923076922" name="top"/>
  <outline>
    <contour>
      <point x="59.519999999999996" y="381.8123076923076" type="qcurve" smooth="yes"/>
      <point x="59.519999999999996" y="954.1572923076922" type="line"/>
      <point x="536.3958153846156" y="954.1572923076922" type="line"/>
      <point x="536.3958153846156" y="460.0646153846153" type="line" smooth="yes"/>
      <point x="536.3958153846155" y="379.65846153846155"/>
      <point x="617.6819692307691" y="304.1630769230769"/>
      <point x="692.6512000000002" y="304.1630769230769" type="qcurve" smooth="yes"/>
      <point x="763.8542769230769" y="304.1630769230769"/>
      <point x="865.7619692307694" y="371.32"/>
      <point x="895.9804307692309" y="421.4953846153847" type="qcurve"/>
      <point x="895.9804307692309" y="954.1572923076922" type="line"/>
      <point x="1373.551630769231" y="954.1572923076922" type="line"/>
      <point x="1373.551630769231" y="0.0" type="line"/>
      <point x="901.9342769230769" y="0.0" type="line"/>
      <point x="898.6173538461536" y="154.1169230769231" type="line"/>
      <point x="898.6727384615384" y="154.1169230769231" type="line"/>
      <point x="847.8374153846156" y="74.07384615384616"/>
      <point x="640.0804923076921" y="-28.458461538461542"/>
      <point x="482.95766153846154" y="-28.458461538461542" type="qcurve" smooth="yes"/>
      <point x="291.60590769230765" y="-28.458461538461542"/>
      <point x="59.519999999999996" y="167.4646153846154"/>
    </contour>
  </outline>
</glyph>
<glyph name="v" format="2">
  <advance width="1367"/>
  <unicode hex="0076"/>
  <outline>
    <contour>
      <point x="-10.338461538461534" y="954.1572923076922" type="line"/>
      <point x="456.7193846153847" y="954.1572923076922" type="line"/>
      <point x="662.1811692307693" y="510.07015384615397" type="line" smooth="yes"/>
      <point x="671.4648615384615" y="490.87378461538464"/>
      <point x="690.8488615384615" y="451.9993846153846"/>
      <point x="698.9503999999998" y="432.2301538461539" type="qcurve"/>
      <point x="700.6396307692306" y="432.2301538461539" type="line"/>
      <point x="709.5380923076923" y="451.96553846153853"/>
      <point x="727.9800615384615" y="490.80609230769227"/>
      <point x="736.5104000000001" y="510.00246153846166" type="qcurve" smooth="yes"/>
      <point x="950.3506461538464" y="954.1572923076922" type="line"/>
      <point x="1377.0024615384614" y="954.1572923076922" type="line"/>
      <point x="918.7347692307693" y="0.0" type="line"/>
      <point x="454.88307692307694" y="0.0" type="line"/>
    </contour>
  </outline>
</glyph>
<glyph name="w" format="2">
  <advance width="2138"/>
  <unicode hex="0077"/>
  <outline>
    <contour>
      <point x="0.15384615384614797" y="954.1572923076922" type="line"/>
      <point x="456.5113846153846" y="954.1572923076922" type="line"/>
      <point x="625.4483692307691" y="513.0892307692309" type="line" smooth="yes"/>
      <point x="636.452" y="483.2399999999999"/>
      <point x="649.6791384615387" y="443.6615384615385"/>
      <point x="658.6668307692306" y="414.116923076923" type="qcurve"/>
      <point x="662.5806769230769" y="414.116923076923" type="line"/>
      <point x="673.2822153846155" y="443.66153846153844"/>
      <point x="686.700123076923" y="483.2399999999999"/>
      <point x="696.9406769230769" y="513.0892307692309" type="qcurve" smooth="yes"/>
      <point x="878.5577846153845" y="954.1572923076922" type="line"/>
      <point x="1303.112123076923" y="954.1572923076922" type="line"/>
      <point x="1484.0563692307694" y="507.98153846153843" type="line" smooth="yes"/>
      <point x="1495.2051076923078" y="479.2523076923076"/>
      <point x="1509.1056000000003" y="440.7600000000001"/>
      <point x="1518.059446153846" y="412.4369230769231" type="qcurve"/>
      <point x="1523.6532923076923" y="412.4369230769231" type="line"/>
      <point x="1532.047138461538" y="440.76000000000005"/>
      <point x="1544.7142769230773" y="479.2523076923077"/>
      <point x="1555.1579076923076" y="507.98153846153843" type="qcurve" smooth="yes"/>
      <point x="1721.4969846153851" y="954.1572923076922" type="line"/>
      <point x="2137.8800000000006" y="954.1572923076922" type="line"/>
      <point x="1778.7046153846156" y="0.0" type="line"/>
      <point x="1294.3234461538464" y="0.0" type="line"/>
      <point x="1104.0792615384614" y="425.69636923076933" type="line" smooth="yes"/>
      <point x="1094.3310153846155" y="448.2840615384615"/>
      <point x="1079.9869538461537" y="487.7271384615384"/>
      <point x="1070.7038769230771" y="509.9086769230768" type="qcurve"/>
      <point x="1066.7592615384613" y="509.9086769230768" type="line"/>
      <point x="1058.0361846153849" y="487.7271384615384"/>
      <point x="1044.2279999999998" y="448.28406153846146"/>
      <point x="1034.5377230769232" y="425.69636923076933" type="qcurve" smooth="yes"/>
      <point x="852.0566153846154" y="0.0" type="line"/>
      <point x="357.3107692307692" y="0.0" type="line"/>
    </contour>
  </outline>
</glyph>
<glyph name="x" format="2">
  <advance width="1342"/>
  <unicode hex="0078"/>
  <outline>
    <contour>
      <point x="-7.403076923076926" y="0.0" type="line"/>
      <point x="458.9138461538462" y="578.8632615384615" type="line"/>
      <point x="594.8529230769229" y="579.4048000000001" type="line"/>
      <point x="895.2190769230768" y="954.1572923076922" type="line"/>
      <point x="1333.636923076923" y="954.1572923076922" type="line"/>
      <point x="884.2338461538461" y="383.84479999999996" type="line"/>
      <point x="724.6116923076922" y="382.89710769230777" type="line"/>
      <point x="431.01476923076916" y="0.0" type="line"/>
    </contour>
    <contour>
      <point x="8.704615384615382" y="954.1572923076922" type="line"/>
      <point x="536.5938461538462" y="954.1572923076922" type="line"/>
      <point x="837.3046153846154" y="560.4940307692308" type="line"/>
      <point x="889.2923076923078" y="560.0201846153846" type="line"/>
      <point x="1349.0153846153848" y="0.0" type="line"/>
      <point x="820.2953846153845" y="0.0" type="line"/>
      <point x="505.38769230769225" y="410.10941538461543" type="line"/>
      <point x="456.94461538461536" y="410.6509538461537" type="line"/>
    </contour>
  </outline>
</glyph>
<glyph name="y" format="2">
  <advance width="1365"/>
  <unicode hex="0079"/>
  <anchor x="628.0812307692307" y="954.1572923076922" name="top"/>
  <outline>
    <contour>
      <point x="-22.668923076923072" y="-405.4553846153847" type="qcurve"/>
      <point x="19.74953846153849" y="-112.15384615384615" type="line"/>
      <point x="67.06436923076922" y="-120.38769230769229"/>
      <point x="158.13501538461543" y="-129.28000000000003"/>
      <point x="202.9944615384615" y="-129.28000000000003" type="qcurve" smooth="yes"/>
      <point x="307.94904615384627" y="-129.28000000000003"/>
      <point x="418.86153846153843" y="-98.35692307692307"/>
      <point x="470.5107692307692" y="7.726153846153851" type="qcurve" smooth="yes"/>
      <point x="461.7446153846154" y="5.467692307692307" type="line"/>
      <point x="-7.630769230769233" y="954.1572923076922" type="line"/>
      <point x="458.5593846153846" y="954.1572923076922" type="line"/>
      <point x="657.8776615384614" y="518.5993846153847" type="line" smooth="yes"/>
      <point x="669.2192615384614" y="494.48609230769245"/>
      <point x="690.7792000000001" y="454.6886153846155"/>
      <point x="700.7638153846153" y="431.54400000000015" type="qcurve"/>
      <point x="702.1638153846152" y="431.54400000000015" type="line"/>
      <point x="713.6407384615385" y="454.6547692307694"/>
      <point x="734.1878769230769" y="494.72301538461545"/>
      <point x="745.1176615384618" y="519.227076923077" type="qcurve" smooth="yes"/>
      <point x="957.7896615384617" y="955.5111384615383" type="line"/>
      <point x="1387.9267692307692" y="954.1572923076922" type="line"/>
      <point x="927.4067692307694" y="24.110769230769257" type="line" smooth="yes"/>
      <point x="805.5068307692306" y="-240.21230769230772"/>
      <point x="517.7778461538462" y="-436.0"/>
      <point x="303.7409230769231" y="-436.0" type="qcurve" smooth="yes"/>
      <point x="182.82412307692306" y="-436.0"/>
      <point x="32.39766153846154" y="-418.9661538461538"/>
    </contour>
  </outline>
</glyph>
<glyph name="z" format="2">
  <advance width="1255"/>
  <unicode hex="007A"/>
  <outline>
    <contour>
      <point x="34.8" y="0.0" type="line"/>
      <point x="34.8" y="248.00307692307695" type="line"/>
      <point x="553.1015384615386" y="632.8369230769231" type="line"/>
      <point x="52.040000000000006" y="632.803446153846" type="line"/>
      <point x="52.040000000000006" y="954.1572923076922" type="line"/>
      <point x="1181.894892307692" y="954.1572923076922" type="line"/>
      <point x="1181.894892307692" y="692.9019076923078" type="line"/>
      <point x="663.963076923077" y="307.4461538461539" type="line"/>
      <point x="1221.6179692307692" y="307.4461538461539" type="line"/>
      <point x="1221.6179692307692" y="0.0" type="line"/>
    </contour>
  </outline>
</glyph>
<glyph name="braceleft" format="2">
  <advance width="878"/>
  <unicode hex="007B"/>
  <outline>
    <contour>
      <point x="890.7246769230769" y="-312.0" type="line"/>
      <point x="416.089476923077" y="-327.59999999999997"/>
      <point x="132.11433846153847" y="-81.20615384615382"/>
      <point x="189.89784615384613" y="123.41230769230766" type="qcurve" smooth="yes"/>
      <point x="238.2836923076923" y="295.3076923076923" type="line" smooth="yes"/>
      <point x="257.21907692307695" y="363.92307692307685"/>
      <point x="139.25366153846156" y="402.20923076923077"/>
      <point x="29.96000000000001" y="402.20923076923077" type="qcurve"/>
      <point x="29.96000000000001" y="745.7907692307692" type="line"/>
      <point x="139.25366153846156" y="745.7907692307692"/>
      <point x="257.21907692307695" y="784.0769230769231"/>
      <point x="238.2836923076923" y="852.6923076923078" type="qcurve" smooth="yes"/>
      <point x="189.89784615384613" y="1024.5876923076926" type="line" smooth="yes"/>
      <point x="133.50510769230766" y="1222.947692307692"/>
      <point x="416.089476923077" y="1468.9846153846154"/>
      <point x="890.7246769230769" y="1460.0" type="qcurve"/>
      <point x="890.7246769230769" y="1136.9292307692308" type="line"/>
      <point x="714.5891692307692" y="1136.9292307692308"/>
      <point x="589.2802461538463" y="1059.8215384615385"/>
      <point x="616.4496" y="971.9876923076924" type="qcurve" smooth="yes"/>
      <point x="665.6662153846156" y="814.0" type="line" smooth="yes"/>
      <point x="690.678523076923" y="730.7261538461537"/>
      <point x="612.8939076923077" y="599.9138461538461"/>
      <point x="515.6692923076923" y="574.0" type="qcurve"/>
      <point x="612.8939076923077" y="548.0861538461539"/>
      <point x="689.8139076923076" y="418.1046153846154"/>
      <point x="665.6662153846156" y="334.0" type="qcurve" smooth="yes"/>
      <point x="616.4496" y="176.0123076923077" type="line" smooth="yes"/>
      <point x="589.2802461538463" y="88.17846153846153"/>
      <point x="714.5891692307692" y="11.07076923076924"/>
      <point x="890.7246769230769" y="11.07076923076924" type="qcurve"/>
    </contour>
  </outline>
</glyph>
<glyph name="bar" format="2">
  <advance width="731"/>
  <unicode hex="007C"/>
  <outline>
    <contour>
      <point x="126.55384615384614" y="-416.0" type="line"/>
      <point x="126.55384615384614" y="1402.8307692307694" type="line"/>
      <point x="604.4039384615386" y="1402.8307692307694" type="line"/>
      <point x="604.4039384615386" y="-416.0" type="line"/>
    </contour>
  </outline>
</glyph>
<glyph name="braceright" format="2">
  <advance width="878"/>
  <unicode hex="007D"/>
  <outline>
    <contour>
      <point x="-13.550769230769236" y="-313.39076923076925" type="qcurve"/>
      <point x="-13.550769230769236" y="9.680000000000014" type="line"/>
      <point x="162.72012307692313" y="9.680000000000014"/>
      <point x="288.58904615384625" y="86.78769230769231"/>
      <point x="260.5889230769231" y="174.62153846153842" type="qcurve" smooth="yes"/>
      <point x="212.20307692307694" y="332.60923076923075" type="line" smooth="yes"/>
      <point x="188.05538461538464" y="416.71384615384613"/>
      <point x="264.14461538461535" y="546.6953846153847"/>
      <point x="362.19999999999993" y="572.6092307692309" type="qcurve"/>
      <point x="264.14461538461535" y="598.5230769230769"/>
      <point x="187.8861538461539" y="728.5046153846154"/>
      <point x="212.20307692307694" y="812.6092307692309" type="qcurve" smooth="yes"/>
      <point x="260.5889230769231" y="970.5969230769231" type="line" smooth="yes"/>
      <point x="288.58904615384625" y="1058.4307692307689"/>
      <point x="162.72012307692313" y="1135.5384615384617"/>
      <point x="-13.550769230769236" y="1135.5384615384617" type="qcurve"/>
      <point x="-13.550769230769236" y="1458.6092307692306" type="line"/>
      <point x="460.81366153846153" y="1474.5476923076922"/>
      <point x="746.025723076923" y="1227.8153846153846"/>
      <point x="687.8360615384618" y="1023.1969230769231" type="qcurve" smooth="yes"/>
      <point x="638.7548307692307" y="851.3015384615384" type="line" smooth="yes"/>
      <point x="619.8194461538462" y="782.6861538461538"/>
      <point x="737.920246153846" y="744.4000000000001"/>
      <point x="848.0446769230768" y="744.4000000000001" type="qcurve"/>
      <point x="848.0446769230768" y="400.6830769230769" type="line"/>
      <point x="737.920246153846" y="400.6830769230769"/>
      <point x="619.819446153846" y="362.39692307692314"/>
      <point x="638.7548307692307" y="293.916923076923" type="qcurve" smooth="yes"/>
      <point x="687.8360615384618" y="122.02153846153844" type="line" smooth="yes"/>
      <point x="744.634953846154" y="-76.33846153846152"/>
      <point x="460.81366153846153" y="-322.036923076923"/>
    </contour>
  </outline>
</glyph>
<glyph name="asciitilde" format="2">
  <advance width="1407"/>
  <unicode hex="007E"/>
  <outline>
    <contour>
      <point x="120.00923076923083" y="345.4769230769231" type="qcurve"/>
      <point x="120.00923076923083" y="798.0523076923077" type="line"/>
      <point x="170.44307692307694" y="866.7846153846153"/>
      <point x="317.7815384615385" y="932.8030769230768"/>
      <point x="406.13230769230773" y="933.0738461538461" type="qcurve" smooth="yes"/>
      <point x="454.0123076923077" y="933.3446153846153"/>
      <point x="635.3723076923076" y="891.9292307692308"/>
      <point x="726.2246153846155" y="860.7723076923077" type="qcurve" smooth="yes"/>
      <point x="816.5046153846151" y="830.9323076923077"/>
      <point x="984.4307692307692" y="787.2553846153846"/>
      <point x="1027.3076923076924" y="787.2553846153846" type="qcurve" smooth="yes"/>
      <point x="1101.2030769230769" y="787.2553846153846"/>
      <point x="1230.1938461538462" y="853.0523076923077"/>
      <point x="1288.8892307692306" y="920.5938461538461" type="qcurve"/>
      <point x="1288.8892307692306" y="432.0953846153846" type="line"/>
      <point x="1246.9353846153845" y="387.80307692307696"/>
      <point x="1119.1815384615384" y="331.91076923076923"/>
      <point x="1029.9353846153847" y="331.91076923076923" type="qcurve" smooth="yes"/>
      <point x="979.7261538461539" y="331.91076923076923"/>
      <point x="785.9200000000001" y="373.7815384615385"/>
      <point x="679.563076923077" y="405.71384615384613" type="qcurve" smooth="yes"/>
      <point x="593.4215384615385" y="433.10769230769216"/>
      <point x="428.1415384615385" y="469.79076923076923"/>
      <point x="390.54461538461544" y="469.79076923076923" type="qcurve" smooth="yes"/>
      <point x="295.02153846153846" y="469.79076923076923"/>
      <point x="164.4061538461539" y="397.34769230769245"/>
    </contour>
  </outline>
</glyph>
<glyph name="twosuperior" format="2">
  <advance width="759"/>
  <unicode hex="00B2"/>
  <outline>
    <contour>
      <point x="47.48" y="697.0" type="line"/>
      <point x="47.48" y="866.5999999999999" type="line"/>
      <point x="341.08" y="1109.68" type="line" smooth="yes"/>
      <point x="394.52" y="1154.44"/>
      <point x="425.0" y="1212.6399999999999"/>
      <point x="425.0" y="1235.56" type="qcurve" smooth="yes"/>
      <point x="425.0" y="1262.2800000000002"/>
      <point x="395.40000000000003" y="1291.5599999999997"/>
      <point x="361.6" y="1291.5599999999997" type="qcurve" smooth="yes"/>
      <point x="320.68" y="1291.5599999999997"/>
      <point x="278.24" y="1239.4"/>
      <point x="278.68000000000006" y="1175.5999999999997" type="qcurve"/>
      <point x="35.08" y="1175.5999999999997" type="line"/>
      <point x="32.96" y="1334.0400000000002"/>
      <point x="203.28000000000003" y="1487.0"/>
      <point x="377.20000000000005" y="1487.0" type="qcurve" smooth="yes"/>
      <point x="552.08" y="1487.0"/>
      <point x="704.0799999999998" y="1359.0"/>
      <point x="704.0799999999998" y="1256.6" type="qcurve" smooth="yes"/>
      <point x="704.0799999999998" y="1176.6"/>
      <point x="605.84" y="1045.2000000000003"/>
      <point x="534.6400000000001" y="986.1199999999999" type="qcurve" smooth="yes"/>
      <point x="439.48" y="906.04" type="line"/>
      <point x="723.88" y="906.04" type="line"/>
      <point x="723.88" y="697.0" type="line"/>
    </contour>
  </outline>
</glyph>
<glyph name="threesuperior" format="2">
  <advance width="751"/>
  <unicode hex="00B3"/>
  <outline>
    <contour>
      <point x="40.6" y="949.12" type="qcurve"/>
      <point x="287.2" y="949.12" type="line"/>
      <point x="287.2" y="909.7200000000003"/>
      <point x="336.4" y="873.8399999999999"/>
      <point x="371.59999999999997" y="873.8399999999999" type="qcurve" smooth="yes"/>
      <point x="412.6" y="873.8399999999999"/>
      <point x="448.04" y="911.2799999999999"/>
      <point x="448.04" y="942.9200000000001" type="qcurve" smooth="yes"/>
      <point x="448.04" y="979.68"/>
      <point x="395.55999999999995" y="1016.7999999999998"/>
      <point x="333.20000000000005" y="1017.2400000000001" type="qcurve" smooth="yes"/>
      <point x="243.6" y="1017.2400000000001" type="line"/>
      <point x="243.6" y="1162.2" type="line"/>
      <point x="322.00000000000006" y="1162.2" type="line" smooth="yes"/>
      <point x="381.68000000000006" y="1162.2"/>
      <point x="430.56" y="1202.5199999999998"/>
      <point x="430.56" y="1240.44" type="qcurve" smooth="yes"/>
      <point x="430.56" y="1269.3199999999997"/>
      <point x="400.64" y="1298.6000000000001"/>
      <point x="361.87999999999994" y="1298.6000000000001" type="qcurve" smooth="yes"/>
      <point x="329.5200000000001" y="1298.6000000000001"/>
      <point x="288.12000000000006" y="1266.5199999999998"/>
      <point x="288.12000000000006" y="1229.1200000000001" type="qcurve"/>
      <point x="57.75999999999999" y="1229.1200000000001" type="line"/>
      <point x="57.75999999999999" y="1359.7999999999997"/>
      <point x="248.28000000000003" y="1487.0"/>
      <point x="376.80000000000007" y="1487.0" type="qcurve" smooth="yes"/>
      <point x="516.88" y="1487.0"/>
      <point x="689.6" y="1377.6"/>
      <point x="689.6" y="1268.6" type="qcurve" smooth="yes"/>
      <point x="689.6" y="1212.0"/>
      <point x="615.4000000000001" y="1120.0"/>
      <point x="555.4000000000002" y="1098.0" type="qcurve"/>
      <point x="629.5599999999998" y="1077.2399999999998"/>
      <point x="706.1999999999998" y="988.6"/>
      <point x="706.1999999999998" y="922.6" type="qcurve" smooth="yes"/>
      <point x="706.1999999999998" y="812.6000000000001"/>
      <point x="531.32" y="686.0"/>
      <point x="383.4" y="686.0" type="qcurve" smooth="yes"/>
      <point x="256.2523076923077" y="686.0"/>
      <point x="40.6" y="803.1815384615385"/>
    </contour>
  </outline>
</glyph>
<glyph name="onesuperior" format="2">
  <advance width="751"/>
  <unicode hex="00B9"/>
  <outline>
    <contour>
      <point x="83.80000000000001" y="1116.9199999999998" type="line"/>
      <point x="83.80000000000001" y="1381.2000000000005" type="line"/>
      <point x="417.79999999999995" y="1486.0" type="line"/>
      <point x="557.0" y="1486.0" type="line"/>
      <point x="557.0" y="697.0" type="line"/>
      <point x="283.00000000000006" y="697.0" type="line"/>
      <point x="283.00000000000006" y="1176.0" type="line"/>
    </contour>
  </outline>
</glyph>
<glyph name="ordmasculine" format="2">
  <advance width="932"/>
  <unicode hex="00BA"/>
  <guideline x="0" y="1975.0" angle="0" identifier="Jnt0R9CyOf"/>
  <outline>
    <contour>
      <point x="123.0" y="1043.0" type="qcurve"/>
      <point x="123.0" y="1026.9173363949483"/>
      <point x="142.43660160734785" y="1078.7015384615383"/>
      <point x="158.98769230769233" y="1078.7015384615383" type="curve"/>
      <point x="175.38264064293912" y="1216.5907692307692"/>
      <point x="360.20307692307694" y="1415.5142594718714"/>
      <point x="500.7784615384616" y="1431.596923076923" type="qcurve" smooth="yes"/>
      <point x="642.2492307692305" y="1431.596923076923"/>
      <point x="807.0" y="1261.6660390355912"/>
      <point x="807.0" y="1124.0" type="qcurve"/>
      <point x="807.0" y="1140.0826636050517"/>
      <point x="787.772629161883" y="1088.403076923077"/>
      <point x="771.2215384615384" y="1088.403076923077" type="curve"/>
      <point x="754.8265901262918" y="950.7370378874859"/>
      <point x="571.3521010332951" y="752.3811251435133"/>
      <point x="431.01230769230773" y="736.2984615384617" type="qcurve" smooth="yes"/>
      <point x="289.36794489093" y="736.2984615384617"/>
      <point x="123.0" y="905.3339609644089"/>
    </contour>
    <contour>
      <point x="286.0" y="1124.0" type="qcurve"/>
      <point x="286.0" y="1043.0" type="line"/>
      <point x="286.0" y="951.9581171067737"/>
      <point x="375.1954535017222" y="830.0"/>
      <point x="467.0" y="830.0" type="qcurve" smooth="yes"/>
      <point x="555.8185074626865" y="830.0"/>
      <point x="645.0" y="951.9581171067737"/>
      <point x="645.0" y="1043.0" type="qcurve"/>
      <point x="645.0" y="1124.0" type="line"/>
      <point x="645.0" y="1212.8185074626867"/>
      <point x="555.2792192881743" y="1336.0"/>
      <point x="465.0" y="1336.0" type="qcurve" smooth="yes"/>
      <point x="374.72078071182546" y="1336.0"/>
      <point x="286.0" y="1212.8185074626867"/>
    </contour>
  </outline>
</glyph>
<glyph name="circumflex" format="2">
  <advance width="1024"/>
  <unicode hex="02C6"/>
  <anchor x="471.0" y="1637.0" name="mkmktop_acc"/>
  <outline>
    <contour>
      <point x="568.0" y="1516.0" type="line"/>
      <point x="816.0" y="1203.0" type="line"/>
      <point x="662.0" y="1203.0" type="line"/>
      <point x="512.0" y="1362.0000000000002" type="line"/>
      <point x="363.0" y="1203.0" type="line"/>
      <point x="211.0" y="1203.0" type="line"/>
      <point x="456.0" y="1516.0" type="line"/>
    </contour>
  </outline>
</glyph>
<glyph name="ogonek" format="2">
  <advance width="1024"/>
  <unicode hex="02DB"/>
  <outline>
    <contour>
      <point x="533.0" y="57.0" type="qcurve"/>
      <point x="607.0" y="0.0" type="line"/>
      <point x="543.0" y="-48.0"/>
      <point x="436.0" y="-157.0"/>
      <point x="436.0" y="-222.0" type="qcurve" smooth="yes"/>
      <point x="436.0" y="-255.00000000000003"/>
      <point x="471.0" y="-295.0"/>
      <point x="514.0" y="-295.0" type="qcurve" smooth="yes"/>
      <point x="547.0" y="-295.0"/>
      <point x="598.9999999999999" y="-276.00000000000006"/>
      <point x="613.9999999999999" y="-268.00000000000006" type="qcurve"/>
      <point x="627.9999999999999" y="-390.0" type="line"/>
      <point x="603.0" y="-405.0"/>
      <point x="526.0" y="-434.0"/>
      <point x="467.0" y="-434.0" type="qcurve" smooth="yes"/>
      <point x="386.00000000000006" y="-434.0"/>
      <point x="275.0" y="-336.0"/>
      <point x="275.0" y="-243.0" type="qcurve" smooth="yes"/>
      <point x="275.0" y="-163.0"/>
      <point x="397.00000000000006" y="-6.0"/>
    </contour>
  </outline>
</glyph>
<glyph name="tilde" format="2">
  <advance width="1024"/>
  <unicode hex="02DC"/>
  <anchor x="475.0" y="1598.0" name="mkmktop_acc"/>
  <outline>
    <contour>
      <point x="156.0" y="1296.0" type="line"/>
      <point x="189.0" y="1359.0"/>
      <point x="327.0" y="1457.0"/>
      <point x="393.99999999999994" y="1457.0" type="qcurve" smooth="yes"/>
      <point x="435.0" y="1457.0"/>
      <point x="510.0" y="1432.0"/>
      <point x="547.0" y="1408.0" type="qcurve" smooth="yes"/>
      <point x="581.0" y="1386.0"/>
      <point x="659.0000000000001" y="1342.0000000000002"/>
      <point x="697.0000000000001" y="1342.0000000000002" type="qcurve" smooth="yes"/>
      <point x="737.0" y="1342.0000000000002"/>
      <point x="807.0" y="1395.0"/>
      <point x="830.0" y="1431.0" type="qcurve"/>
      <point x="911.0" y="1333.0" type="line"/>
      <point x="873.0" y="1262.0"/>
      <point x="740.0" y="1189.9999999999998"/>
      <point x="683.0" y="1189.9999999999998" type="qcurve" smooth="yes"/>
      <point x="634.0" y="1189.9999999999998"/>
      <point x="540.0" y="1233.0"/>
      <point x="508.99999999999994" y="1250.0" type="qcurve" smooth="yes"/>
      <point x="475.0" y="1269.0"/>
      <point x="406.99999999999994" y="1303.0"/>
      <point x="378.0" y="1303.0" type="qcurve" smooth="yes"/>
      <point x="331.0" y="1303.0"/>
      <point x="250.0" y="1231.0"/>
      <point x="231.99999999999997" y="1204.0" type="qcurve"/>
    </contour>
  </outline>
</glyph>
<glyph name="hungarumlaut" format="2">
  <advance width="1024"/>
  <unicode hex="02DD"/>
  <outline>
    <contour>
      <point x="559.5846153846153" y="1193.2461538461534" type="line"/>
      <point x="788.4338461538462" y="1497.1876923076923" type="line"/>
      <point x="999.513846153846" y="1502.313846153846" type="line"/>
      <point x="734.7569230769232" y="1196.3846153846152" type="line"/>
    </contour>
    <contour>
      <point x="217.8615384615385" y="1193.2461538461534" type="line"/>
      <point x="380.4338461538461" y="1497.1876923076923" type="line"/>
      <point x="581.5723076923075" y="1502.313846153846" type="line"/>
      <point x="372.0461538461538" y="1196.3846153846152" type="line"/>
    </contour>
  </outline>
</glyph>
<glyph name="hookabovecomb" format="2">
  <advance width="1024"/>
  <unicode hex="0309"/>
  <outline>
    <contour>
      <point x="454.0" y="1147.0" type="line"/>
      <point x="454.0" y="1186.0" type="line" smooth="yes"/>
      <point x="454.0" y="1238.0"/>
      <point x="513.0" y="1308.0"/>
      <point x="589.0" y="1319.0" type="qcurve" smooth="yes"/>
      <point x="645.0" y="1327.0"/>
      <point x="685.0" y="1359.0"/>
      <point x="685.0" y="1400.0" type="qcurve" smooth="yes"/>
      <point x="685.0" y="1439.0"/>
      <point x="626.0" y="1475.0"/>
      <point x="572.0" y="1475.0" type="qcurve" smooth="yes"/>
      <point x="507.99999999999994" y="1475.0"/>
      <point x="395.9999999999999" y="1442.0"/>
      <point x="385.9999999999999" y="1434.0" type="qcurve"/>
      <point x="332.00000000000006" y="1559.0" type="line"/>
      <point x="366.99999999999994" y="1578.0"/>
      <point x="521.0" y="1619.0"/>
      <point x="603.0" y="1619.0" type="qcurve" smooth="yes"/>
      <point x="723.0" y="1619.0"/>
      <point x="848.0000000000001" y="1505.0000000000002"/>
      <point x="848.0000000000001" y="1409.0" type="qcurve" smooth="yes"/>
      <point x="848.0000000000001" y="1308.0"/>
      <point x="720.0" y="1189.0"/>
      <point x="577.0" y="1178.0" type="qcurve"/>
      <point x="577.0" y="1147.0" type="line"/>
    </contour>
  </outline>
</glyph>
<glyph name="horncomb" format="2">
  <advance width="1024"/>
  <unicode hex="031B"/>
  <outline>
    <contour>
      <point x="0.0" y="998.0" type="line"/>
      <point x="84.0" y="998.0" type="line" smooth="yes"/>
      <point x="132.0" y="998.0"/>
      <point x="204.0" y="1032.0"/>
      <point x="204.0" y="1084.0000000000002" type="qcurve" smooth="yes"/>
      <point x="204.0" y="1130.0000000000002"/>
      <point x="190.99999999999997" y="1203.0000000000002"/>
      <point x="181.0" y="1239.0000000000002" type="qcurve"/>
      <point x="327.0" y="1239.0000000000002" type="line"/>
      <point x="347.0" y="1206.0"/>
      <point x="380.0" y="1103.0"/>
      <point x="380.0" y="1039.0" type="qcurve" smooth="yes"/>
      <point x="380.0" y="951.0"/>
      <point x="240.0" y="866.0"/>
      <point x="144.0" y="866.0" type="qcurve" smooth="yes"/>
      <point x="98.0" y="866.0"/>
      <point x="26.0" y="878.0"/>
      <point x="0.0" y="887.0" type="qcurve"/>
    </contour>
  </outline>
</glyph>
<glyph name="fraction" format="2">
  <advance width="342"/>
  <unicode hex="2044"/>
  <guideline x="0" y="901.0" angle="0" identifier="tcCoNUQTdD"/>
  <guideline x="0" y="555.0" angle="0" identifier="0lx51aIE0d"/>
  <outline>
    <contour>
      <point x="761.7846153846153" y="1333.489230769231" type="line"/>
      <point x="-133.41230769230768" y="-24.498461538461545" type="line"/>
      <point x="-421.3538461538461" y="133.84615384615387" type="line"/>
      <point x="471.1907692307691" y="1492.6769230769228" type="line"/>
    </contour>
  </outline>
</glyph>
<glyph name="foursuperior" format="2">
  <advance width="804"/>
  <unicode hex="2074"/>
  <outline>
    <contour>
      <point x="33.0" y="852.0000000000002" type="line"/>
      <point x="26.0" y="1010.0000000000002" type="line"/>
      <point x="404.00000000000006" y="1496.0" type="line"/>
      <point x="606.3999999999997" y="1496.0" type="line"/>
      <point x="443.8" y="1270.0" type="line"/>
      <point x="268.56" y="1034.6400000000003" type="line"/>
      <point x="772.8" y="1038.0" type="line"/>
      <point x="772.8" y="852.0000000000002" type="line"/>
    </contour>
    <contour>
      <point x="664.8" y="1496.0" type="line"/>
      <point x="664.8" y="697.0" type="line"/>
      <point x="423.7999999999999" y="697.0" type="line"/>
      <point x="423.7999999999999" y="1496.0" type="line"/>
    </contour>
  </outline>
</glyph>
<glyph name="acutecomb.case" format="2">
  <advance width="1024"/>
  <outline>
    <contour>
      <point x="392.26461538461547" y="1622.6830769230767" type="line"/>
      <point x="621.2646153846154" y="1995.9723076923078" type="line"/>
      <point x="806.6369230769229" y="1926.2707692307695" type="line"/>
      <point x="518.0030769230768" y="1569.5907692307692" type="line"/>
    </contour>
  </outline>
</glyph>
<glyph name="brevecombstack.case" format="2">
  <advance width="1024"/>
  <outline>
    <contour>
      <point x="774.0" y="1910.0" type="qcurve"/>
      <point x="877.0" y="1844.0" type="line"/>
      <point x="840.0" y="1757.0"/>
      <point x="649.0000000000001" y="1610.0"/>
      <point x="512.0" y="1610.0" type="qcurve" smooth="yes"/>
      <point x="390.0" y="1610.0"/>
      <point x="194.0" y="1745.0"/>
      <point x="148.0" y="1845.0" type="qcurve"/>
      <point x="257.99999999999994" y="1910.0" type="line"/>
      <point x="297.0" y="1856.0"/>
      <point x="427.0" y="1769.0"/>
      <point x="512.0" y="1769.0" type="qcurve" smooth="yes"/>
      <point x="604.0" y="1769.0"/>
      <point x="735.0" y="1852.0000000000002"/>
    </contour>
  </outline>
</glyph>
<glyph name="breveinvertedcomb.case" format="2">
  <advance width="1024"/>
  <outline>
    <contour>
      <point x="221.99999999999997" y="1613.0" type="qcurve"/>
      <point x="129.0" y="1683.0" type="line"/>
      <point x="168.0" y="1782.0"/>
      <point x="369.0" y="1949.0"/>
      <point x="513.0" y="1949.0" type="qcurve" smooth="yes"/>
      <point x="641.0" y="1949.0"/>
      <point x="848.0" y="1796.0"/>
      <point x="896.0" y="1682.0" type="qcurve"/>
      <point x="796.0" y="1613.0" type="line"/>
      <point x="753.0" y="1676.0"/>
      <point x="608.0000000000001" y="1780.0"/>
      <point x="513.0" y="1780.0" type="qcurve" smooth="yes"/>
      <point x="411.0" y="1780.0"/>
      <point x="265.0" y="1681.0"/>
    </contour>
  </outline>
</glyph>
<glyph name="caroncomb.alt" format="2">
  <advance width="1024"/>
  <outline>
    <contour>
      <point x="386.0" y="1092.0" type="line"/>
      <point x="487.99999999999994" y="1481.0" type="line"/>
      <point x="678.0" y="1427.0" type="line"/>
      <point x="514.0" y="1057.0" type="line"/>
    </contour>
  </outline>
</glyph>
<glyph name="commaaccentcomb.case" format="2">
  <advance width="1024"/>
  <outline>
    <contour>
      <point x="332.99999999999994" y="-648.0" type="line"/>
      <point x="361.99999999999994" y="-544.0"/>
      <point x="398.99999999999994" y="-375.0"/>
      <point x="430.99999999999994" y="-236.0" type="qcurve"/>
      <point x="645.0" y="-234.0" type="line"/>
      <point x="508.0" y="-651.0" type="line"/>
    </contour>
  </outline>
</glyph>
<glyph name="dollar.rvrn" format="2">
  <advance width="1435"/>
  <outline>
    <contour>
      <point x="34.009230769230754" y="423.60923076923075" type="qcurve" smooth="yes"/>
      <point x="34.009230769230754" y="495.5476923076923" type="line"/>
      <point x="484.19692307692316" y="495.5476923076923" type="line"/>
      <point x="484.19692307692316" y="466.72307692307703" type="line" smooth="yes"/>
      <point x="483.50153846153853" y="391.42683363148484"/>
      <point x="612.5507692307692" y="310.43384615384616"/>
      <point x="726.3353846153846" y="310.43384615384616" type="qcurve" smooth="yes"/>
      <point x="833.8676923076926" y="310.43384615384616"/>
      <point x="951.5323076923079" y="379.60410944759934"/>
      <point x="951.5323076923079" y="431.2369230769231" type="qcurve" smooth="yes"/>
      <point x="951.5323076923079" y="493.7266666666667"/>
      <point x="863.3617594141989" y="497.69941247016476"/>
      <point x="600.116923076923" y="564.5446153846153" type="qcurve" smooth="yes"/>
      <point x="311.11912834453653" y="641.7248911096466"/>
      <point x="53.627692307692314" y="805.1194741966893"/>
      <point x="53.627692307692314" y="1002.8061538461541" type="qcurve" smooth="yes"/>
      <point x="53.627692307692314" y="1212.4400000000003"/>
      <point x="407.7046153846153" y="1466.8553846153845"/>
      <point x="710.1692307692308" y="1466.8553846153845" type="qcurve" smooth="yes"/>
      <point x="1008.1753846153846" y="1466.8553846153845"/>
      <point x="1376.5292307692307" y="1235.8338461538463"/>
      <point x="1376.5292307692307" y="1049.4984615384617" type="qcurve" smooth="yes"/>
      <point x="1376.5292307692307" y="989.3815384615384" type="line"/>
      <point x="932.6000000000001" y="989.3815384615384" type="line"/>
      <point x="932.6000000000001" y="1009.8615384615385" type="line" smooth="yes"/>
      <point x="932.6000000000001" y="1065.5484205735095"/>
      <point x="821.4523076923076" y="1138.5938461538462"/>
      <point x="719.9046153846156" y="1138.5938461538462" type="qcurve" smooth="yes"/>
      <point x="615.4092307692308" y="1138.5938461538462"/>
      <point x="514.8984615384616" y="1079.5388515709644"/>
      <point x="514.8984615384616" y="1035.0738461538465" type="qcurve" smooth="yes"/>
      <point x="514.8984615384616" y="990.9615384615383"/>
      <point x="621.9015384615385" y="981.1792307692307"/>
      <point x="886.9669230769229" y="922.2076923076922" type="qcurve" smooth="yes"/>
      <point x="1147.8353846153843" y="863.5284615384616"/>
      <point x="1413.1046153846153" y="690.2661538461539"/>
      <point x="1413.1046153846153" y="498.5415384615385" type="qcurve" smooth="yes"/>
      <point x="1413.1046153846153" y="258.13846153846157"/>
      <point x="1040.4030769230774" y="-8.923076923076925"/>
      <point x="733.2892307692307" y="-8.923076923076925" type="qcurve" smooth="yes"/>
      <point x="427.4338461538461" y="-8.923076923076925"/>
      <point x="34.009230769230754" y="221.59384615384616"/>
    </contour>
    <contour>
      <point x="535.3230769230769" y="-134.08000000000004" type="line"/>
      <point x="535.3230769230769" y="164.20000000000002" type="line"/>
      <point x="918.3661538461538" y="164.20000000000002" type="line"/>
      <point x="918.3661538461538" y="114.22769230769231" type="line"/>
      <point x="925.3876923076924" y="104.2276923076923" type="line"/>
      <point x="925.3876923076924" y="-134.08000000000004" type="line"/>
    </contour>
    <contour>
      <point x="540.1969230769231" y="1241.9538461538461" type="line"/>
      <point x="540.2134" y="1332.430769230769" type="line"/>
      <point x="532.9723076923077" y="1342.430769230769" type="line"/>
      <point x="532.9723076923077" y="1622.6153846153845" type="line"/>
      <point x="923.045553846154" y="1622.6153846153845" type="line"/>
      <point x="923.036923076923" y="1241.9538461538461" type="line"/>
    </contour>
  </outline>
</glyph>
<glyph name="gravecomb.case" format="2">
  <advance width="1024"/>
  <outline>
    <contour>
      <point x="470.9692307692308" y="1583.883076923077" type="line"/>
      <point x="179.28307692307692" y="1935.5507692307694" type="line"/>
      <point x="365.85846153846154" y="2002.1292307692308" type="line"/>
      <point x="603.1015384615389" y="1632.6892307692308" type="line"/>
    </contour>
  </outline>
</glyph>
<glyph name="horncomb.case" format="2">
  <advance width="1024"/>
  <outline>
    <contour>
      <point x="381.99999999999994" y="1519.353846153846" type="line"/>
      <point x="455.0" y="1519.353846153846" type="line" smooth="yes"/>
      <point x="518.0" y="1519.353846153846"/>
      <point x="593.0" y="1550.353846153846"/>
      <point x="593.0" y="1607.353846153846" type="qcurve" smooth="yes"/>
      <point x="593.0" y="1648.353846153846"/>
      <point x="582.0" y="1721.353846153846"/>
      <point x="573.0" y="1757.353846153846" type="qcurve"/>
      <point x="726.2923076923076" y="1757.353846153846" type="line"/>
      <point x="743.2923076923078" y="1726.353846153846"/>
      <point x="777.2923076923076" y="1616.353846153846"/>
      <point x="777.2923076923076" y="1557.3538461538462" type="qcurve" smooth="yes"/>
      <point x="777.2923076923076" y="1469.3538461538462"/>
      <point x="626.0" y="1375.0492307692307"/>
      <point x="530.0" y="1375.0492307692307" type="qcurve" smooth="yes"/>
      <point x="483.99999999999994" y="1375.0492307692307"/>
      <point x="407.99999999999994" y="1388.3784615384616"/>
      <point x="381.99999999999994" y="1398.7076923076925" type="qcurve"/>
    </contour>
  </outline>
</glyph>
<glyph name="idotless" format="2">
  <advance width="608"/>
  <outline>
    <contour>
      <point x="71.07076923076926" y="0.0" type="line"/>
      <point x="71.07076923076926" y="951.3661538461538" type="line"/>
      <point x="537.4184615384617" y="951.3661538461538" type="line"/>
      <point x="537.4184615384617" y="0.0" type="line"/>
    </contour>
  </outline>
</glyph>
<glyph name="jdotless" format="2">
  <advance width="639"/>
  <outline>
    <contour>
      <point x="-188.14461538461538" y="-413.88923076923083" type="qcurve"/>
      <point x="-197.1846153846154" y="-88.44923076923075" type="line"/>
      <point x="-175.10153846153847" y="-93.88615384615386"/>
      <point x="-101.02461538461539" y="-110.07076923076926"/>
      <point x="-36.793846153846154" y="-110.07076923076926" type="qcurve" smooth="yes"/>
      <point x="39.60307692307691" y="-110.07076923076926"/>
      <point x="103.87384615384613" y="-37.32923076923078"/>
      <point x="103.87384615384613" y="76.37230769230773" type="qcurve" smooth="yes"/>
      <point x="103.87384615384613" y="951.3661538461538" type="line"/>
      <point x="566.7446153846154" y="951.3661538461538" type="line"/>
      <point x="566.7446153846154" y="21.360000000000003" type="line" smooth="yes"/>
      <point x="566.7446153846154" y="-219.32923076923075"/>
      <point x="312.0215384615385" y="-438.7815384615385"/>
      <point x="64.29846153846155" y="-438.7815384615385" type="qcurve" smooth="yes"/>
      <point x="-4.270769230769235" y="-438.7815384615385"/>
      <point x="-147.10461538461539" y="-422.78461538461545"/>
    </contour>
  </outline>
</glyph>
<glyph name="tildecombstack.case" format="2">
  <advance width="1024"/>
  <outline>
    <contour>
      <point x="173.0" y="1776.0" type="line"/>
      <point x="213.0" y="1848.0"/>
      <point x="337.00000000000006" y="1922.0"/>
      <point x="404.0" y="1922.0" type="qcurve" smooth="yes"/>
      <point x="439.0" y="1922.0"/>
      <point x="512.0" y="1900.0"/>
      <point x="548.0" y="1874.0" type="qcurve" smooth="yes"/>
      <point x="578.0" y="1852.0"/>
      <point x="644.0" y="1817.0"/>
      <point x="676.0" y="1817.0" type="qcurve" smooth="yes"/>
      <point x="716.0" y="1817.0"/>
      <point x="763.0" y="1857.0"/>
      <point x="784.0" y="1896.0" type="qcurve"/>
      <point x="878.0" y="1805.0" type="line"/>
      <point x="846.0" y="1731.0"/>
      <point x="732.0" y="1657.0"/>
      <point x="667.0" y="1657.0" type="qcurve" smooth="yes"/>
      <point x="617.9999999999999" y="1657.0"/>
      <point x="536.0" y="1692.0"/>
      <point x="506.0" y="1712.0" type="qcurve" smooth="yes"/>
      <point x="475.0" y="1733.0"/>
      <point x="411.0" y="1770.0"/>
      <point x="387.0" y="1770.0" type="qcurve" smooth="yes"/>
      <point x="351.0" y="1770.0"/>
      <point x="290.0" y="1715.0"/>
      <point x="271.0" y="1685.0" type="qcurve"/>
    </contour>
  </outline>
</glyph>
<glyph name="zerosuperior" format="2">
  <advance width="909"/>
  <outline>
    <contour>
      <point x="24.335384615384612" y="1060.3784615384616" type="qcurve" smooth="yes"/>
      <point x="24.335384615384612" y="1125.8923076923074" type="line" smooth="yes"/>
      <point x="24.335384615384612" y="1294.3292307692311"/>
      <point x="261.7876923076922" y="1491.0646153846153"/>
      <point x="455.723076923077" y="1491.0646153846153" type="qcurve" smooth="yes"/>
      <point x="648.2338461538461" y="1491.0646153846153"/>
      <point x="884.5292307692308" y="1293.9230769230767"/>
      <point x="884.5292307692308" y="1126.9753846153844" type="qcurve" smooth="yes"/>
      <point x="884.5292307692308" y="1062.8153846153846" type="line" smooth="yes"/>
      <point x="884.5292307692308" y="878.5876923076924"/>
      <point x="648.233846153846" y="675.0646153846155"/>
      <point x="454.8923076923077" y="675.0646153846155" type="qcurve" smooth="yes"/>
      <point x="261.7876923076923" y="675.0646153846155"/>
      <point x="24.335384615384612" y="876.0153846153847"/>
    </contour>
    <contour>
      <point x="337.8646153846154" y="1011.4738461538462" type="line" smooth="yes"/>
      <point x="337.8646153846154" y="948.8369230769231"/>
      <point x="392.9661538461538" y="895.8430769230768"/>
      <point x="455.723076923077" y="895.8430769230768" type="qcurve" smooth="yes"/>
      <point x="517.9538461538461" y="895.8430769230768"/>
      <point x="571.0000000000001" y="948.8369230769231"/>
      <point x="571.0000000000001" y="1011.4738461538462" type="qcurve" smooth="yes"/>
      <point x="571.0000000000001" y="1147.7015384615388" type="line" smooth="yes"/>
      <point x="571.0000000000001" y="1210.3384615384616"/>
      <point x="519.3446153846154" y="1270.2861538461536"/>
      <point x="454.8923076923077" y="1270.2861538461536" type="qcurve" smooth="yes"/>
      <point x="390.88000000000005" y="1270.2861538461536"/>
      <point x="337.8646153846154" y="1210.3384615384616"/>
      <point x="337.8646153846154" y="1147.7015384615388" type="qcurve" smooth="yes"/>
    </contour>
  </outline>
</glyph>
